<svg width="18" height="18" viewBox="0 0 18 18" fill="none" xmlns="http://www.w3.org/2000/svg">
<rect width="18" height="18" rx="9" fill="#F73149"/>
<path d="M11.1271 9.94124C10.8247 9.94124 10.5232 9.95176 10.2216 9.93686C10.0445 9.92809 9.99526 9.98595 9.9986 10.1709C10.0103 10.7609 10.0044 11.3509 9.9986 11.9408C9.9986 12.6106 9.58678 13.0805 9.00957 13.0884C8.41899 13.0954 8.00133 12.6176 7.99883 11.9303C7.99883 11.3737 7.98797 10.8161 8.00384 10.2595C8.01052 10.0175 7.96708 9.92196 7.70813 9.93335C7.15765 9.9579 6.6055 9.94475 6.05335 9.94037C5.4469 9.93511 5.00084 9.48802 5 8.89366C4.99917 8.29931 5.44022 7.84872 6.0475 7.8417C6.63223 7.83644 7.21696 7.83381 7.79584 7.8417C7.96291 7.8417 8.00551 7.79436 8.00217 7.62342C7.99298 7.02292 7.99632 6.42243 8.00217 5.82193C8.00217 5.15657 8.41983 4.68757 9.00456 4.6902C9.58929 4.69283 9.99776 5.16446 10.0003 5.82982C10.0003 6.38736 10.0228 6.9449 9.99275 7.50069C9.97604 7.80751 10.0763 7.85134 10.3369 7.84433C10.8673 7.82329 11.3986 7.83469 11.929 7.83819C12.5564 7.83819 13.0066 8.29142 12.9999 8.89892C12.9941 9.49328 12.548 9.92985 11.9366 9.93598C11.6684 9.94387 11.3986 9.94124 11.1271 9.94124Z" fill="white"/>
</svg>
