<svg width="16" height="16" viewBox="0 0 16 16" fill="none" xmlns="http://www.w3.org/2000/svg">
<path d="M3.33333 2.66667H4.06667C4.2214 1.91428 4.63079 1.23823 5.22583 0.752479C5.82088 0.266727 6.5652 0.000969683 7.33333 0L8.66667 0C9.4348 0.000969683 10.1791 0.266727 10.7742 0.752479C11.3692 1.23823 11.7786 1.91428 11.9333 2.66667H12.6667C13.5504 2.66773 14.3976 3.01925 15.0225 3.64415C15.6474 4.26904 15.9989 5.11627 16 6V12.6667C15.9989 13.5504 15.6474 14.3976 15.0225 15.0225C14.3976 15.6474 13.5504 15.9989 12.6667 16H3.33333C2.4496 15.9989 1.60237 15.6474 0.977479 15.0225C0.352587 14.3976 0.00105762 13.5504 0 12.6667V6C0.00105762 5.11627 0.352587 4.26904 0.977479 3.64415C1.60237 3.01925 2.4496 2.66773 3.33333 2.66667ZM8.66667 1.33333H7.33333C6.92116 1.33504 6.51958 1.46406 6.18353 1.70273C5.84749 1.94139 5.59339 2.27806 5.456 2.66667H10.544C10.4066 2.27806 10.1525 1.94139 9.81647 1.70273C9.48042 1.46406 9.07884 1.33504 8.66667 1.33333ZM12.6667 4H3.33333C2.8029 4 2.29419 4.21071 1.91912 4.58579C1.54405 4.96086 1.33333 5.46957 1.33333 6V8H14.6667V6C14.6667 5.46957 14.456 4.96086 14.0809 4.58579C13.7058 4.21071 13.1971 4 12.6667 4ZM3.33333 14.6667H12.6667C13.1971 14.6667 13.7058 14.456 14.0809 14.0809C14.456 13.7058 14.6667 13.1971 14.6667 12.6667V9.33333H8.66667V10C8.66667 10.1768 8.59643 10.3464 8.4714 10.4714C8.34638 10.5964 8.17681 10.6667 8 10.6667C7.82319 10.6667 7.65362 10.5964 7.52859 10.4714C7.40357 10.3464 7.33333 10.1768 7.33333 10V9.33333H1.33333V12.6667C1.33333 13.1971 1.54405 13.7058 1.91912 14.0809C2.29419 14.456 2.8029 14.6667 3.33333 14.6667Z" fill="#D53B32"/>
</svg>
