<svg width="90" height="85" viewBox="0 0 90 85" fill="none" xmlns="http://www.w3.org/2000/svg">
<path d="M90.0002 42.6667C89.6895 42.6854 89.5859 42.9662 89.4188 43.1487C86.3584 46.5017 83.3334 49.8687 80.2755 53.2101C80.1041 53.3814 79.9766 53.591 79.9037 53.8215C79.8307 54.052 79.8146 54.2964 79.8565 54.5344C80.3744 59.1112 80.8452 63.6926 81.3537 68.2694C81.4102 68.7935 81.1747 68.8894 80.7416 68.9713C76.2382 69.9073 71.7443 70.8736 67.2385 71.7979C66.9846 71.8374 66.7439 71.9365 66.5363 72.0871C66.3287 72.2377 66.1603 72.4353 66.045 72.6636C63.7804 76.6133 61.4828 80.5419 59.2182 84.4916C58.9521 84.9595 58.7473 85.0953 58.2106 84.8496C53.7849 82.849 49.3428 80.8835 44.9076 78.9063C44.6181 78.6349 44.6299 78.2722 44.6299 77.9259C44.6299 70.1061 44.604 62.2887 44.6299 54.4689C44.6299 54.3823 44.644 54.2957 44.6511 54.2115C44.6595 54.1172 44.6736 54.0234 44.6934 53.9307C45.1642 52.7187 46.2401 51.9723 47.0475 51.0317C49.2863 48.4578 51.5956 45.9261 53.8861 43.3874C56.0825 40.9633 58.2577 38.5158 60.4611 36.0964C61.3463 35.1245 62.2204 34.1426 63.0836 33.1505C63.4108 32.7761 63.3708 32.5164 62.9965 32.2146C62.1231 31.4681 61.2497 30.7358 60.4423 29.9332C60.0397 29.5354 59.7902 29.6314 59.4371 29.994C58.1141 31.3582 56.89 32.8019 55.6164 34.2221C53.9332 36.094 52.2642 37.9659 50.5857 39.8378C48.9072 41.7097 47.2194 43.6494 45.4656 45.4885C45.1948 45.7717 44.8959 46.1437 44.6887 45.43C44.63 45.054 44.6087 44.6731 44.6252 44.2929C44.6252 32.0508 44.6252 19.8055 44.6252 7.55717C44.6252 7.04709 44.5051 6.49722 44.9076 6.05499C49.3428 4.09185 53.7849 2.11935 58.2106 0.114098C58.7497 -0.119888 58.9521 0.00880461 59.2182 0.474436C61.4828 4.42177 63.7804 8.35272 66.045 12.3001C66.16 12.5288 66.3283 12.7269 66.5359 12.8779C66.7435 13.0289 66.9844 13.1284 67.2385 13.1681C71.6289 14.0596 76.0099 15.0073 80.4002 15.9011C81.1559 16.0555 81.4172 16.2731 81.3136 17.1389C80.7604 21.6829 80.3084 26.2362 79.8164 30.7849C79.7988 30.912 79.8109 31.0415 79.8517 31.1632C79.8925 31.2849 79.961 31.3957 80.0518 31.4869C83.3005 35.0622 86.5421 38.6437 89.7766 42.2315C89.826 42.2876 89.9249 42.297 90.0002 42.3274V42.6667Z" fill="#CE372D"/>
<path d="M44.8863 53.8301L44.9051 78.9203C40.4324 80.9092 35.9737 82.8981 31.5221 84.901C30.9642 85.1537 30.8159 84.887 30.5993 84.5009C28.37 80.6331 26.1101 76.7794 23.909 72.8975C23.7435 72.5835 23.5048 72.3135 23.2128 72.1099C22.9208 71.9064 22.584 71.7753 22.2305 71.7276C17.8402 70.8361 13.4616 69.8815 9.07119 68.9853C8.53681 68.8777 8.40969 68.7045 8.46619 68.1921C8.97938 63.5873 9.46197 58.9778 9.97987 54.3729C10.0067 54.1745 9.98562 53.9726 9.9185 53.7838C9.85137 53.5951 9.74008 53.4249 9.59379 53.2872C6.50288 49.8898 3.43315 46.4759 0.325748 43.0948C-0.107405 42.6269 -0.109759 42.3765 0.325748 41.9038C3.41196 38.5438 6.45815 35.1463 9.5373 31.7793C9.70895 31.6078 9.83646 31.3976 9.909 31.1666C9.98153 30.9357 9.99696 30.6907 9.95397 30.4526C9.43843 25.8782 8.9629 21.2967 8.46383 16.7177C8.41675 16.2918 8.52269 16.1233 8.98409 16.0297C13.4027 15.1219 17.8119 14.1579 22.2305 13.2687C22.5841 13.2214 22.921 13.0905 23.2131 12.8869C23.5052 12.6833 23.7438 12.413 23.909 12.0988C26.0795 8.2661 28.3182 4.46852 30.5005 0.633501C30.8395 0.0415176 31.0984 -0.119933 31.7717 0.186588C36.1362 2.16844 40.5242 4.10818 44.9051 6.0643C44.9051 19.2954 44.9051 32.528 44.9051 45.7623C44.9169 45.8873 44.8983 46.0132 44.851 46.1296C43.8552 47.3861 42.7323 48.5444 41.6753 49.7424C41.0586 50.4443 40.8702 50.4092 40.1781 49.7236C36.8824 46.4478 33.5867 43.172 30.2909 39.8962C29.1304 38.7427 29.3281 38.7591 28.1464 39.9267C27.5225 40.5444 26.9152 41.1785 26.2631 41.7752C25.8441 42.1683 25.8747 42.4771 26.2631 42.8655C31.0482 47.5905 35.8207 52.331 40.5807 57.0872C41.0515 57.5551 41.3858 57.4522 41.7177 57.0006C42.2897 56.2191 43.0242 55.585 43.6292 54.8339C43.9635 54.415 44.2601 53.905 44.8863 53.8301Z" fill="#EA4D4A"/>
<path d="M44.7802 46.008L44.9049 45.774C47.8272 42.5404 50.7478 39.309 53.6669 36.08C55.5855 33.9531 57.5064 31.8285 59.4038 29.6829C59.7357 29.3062 59.9335 29.1775 60.3595 29.5846C61.3318 30.5205 62.3511 31.3957 63.3728 32.2708C63.7 32.5515 63.7824 32.7387 63.4505 33.0967C57.2843 39.9338 51.1268 46.7786 44.9779 53.6313C44.9545 53.6494 44.9283 53.6636 44.9002 53.6734C44.8029 53.5647 44.7295 53.4369 44.6849 53.2982C44.6403 53.1596 44.6255 53.0132 44.6413 52.8685C44.6178 50.8656 44.6272 48.865 44.6413 46.8621C44.6342 46.5649 44.7684 46.2982 44.7802 46.008Z" fill="#F6EFEA"/>
<path d="M44.7805 46.008C45.0394 46.476 44.8958 46.979 44.8982 47.4634C44.9147 49.5342 44.8982 51.6026 44.8982 53.6734C44.8982 53.7248 44.8982 53.7763 44.8841 53.8301C43.82 55.0001 42.7371 56.1372 41.7013 57.3235C41.3176 57.7634 41.0987 57.8406 40.6349 57.3774C35.7588 52.4917 30.8655 47.6248 25.9548 42.7767C25.5688 42.3953 25.484 42.1683 25.929 41.7588C26.8565 40.9095 27.7628 40.032 28.6008 39.0961C29.1023 38.5369 29.3777 38.696 29.8226 39.1429C33.3326 42.6527 36.8849 46.1624 40.3807 49.6722C40.8374 50.1402 41.061 50.1729 41.4989 49.6558C42.5512 48.4087 43.6835 47.22 44.7805 46.008Z" fill="#FEFAF4"/>
</svg>
