<svg width="33" height="41" viewBox="0 0 33 41" fill="none" xmlns="http://www.w3.org/2000/svg">
<g filter="url(#filter0_d_139_152)">
<path d="M9.06226 23.6008L11.7225 25.1367L6.32044 34.4933L4.76995 31.0353L9.06226 23.6008Z" fill="#AA75CB"/>
<path d="M9.06226 23.6008L6.40206 22.065L1.00004 31.4215L4.76995 31.0353L9.06226 23.6008Z" fill="#73488D"/>
<path d="M12.8574 23.6008L10.1972 25.1367L15.5992 34.4933L17.1497 31.0353L12.8574 23.6008Z" fill="#73488D"/>
<path d="M12.8574 23.6008L15.5176 22.065L20.9196 31.4215L17.1497 31.0353L12.8574 23.6008Z" fill="#AA75CB"/>
<circle cx="10.9555" cy="17.1586" r="9.65855" fill="#DC9E42" stroke="#774700"/>
<circle cx="10.9556" cy="17.1586" r="7.14908" fill="#734C12"/>
<mask id="mask0_139_152" style="mask-type:alpha" maskUnits="userSpaceOnUse" x="4" y="10" width="15" height="16">
<circle cx="11.337" cy="17.9218" r="7.16572" fill="#C28B37"/>
</mask>
<g mask="url(#mask0_139_152)">
<circle cx="10.9554" cy="17.1586" r="7.16572" fill="#A36D1D"/>
</g>
<path d="M10.9942 12.1736L12.5399 15.2651L15.6314 15.6515L13.5086 18.032L14.0857 21.4481L10.9942 19.9023L7.90268 21.4481L8.48491 18.032L6.35693 15.6515L9.44843 15.2651L10.9942 12.1736Z" fill="url(#paint0_linear_139_152)"/>
</g>
<defs>
<filter id="filter0_d_139_152" x="0.0134993" y="0.732016" width="32.8531" height="40.0291" filterUnits="userSpaceOnUse" color-interpolation-filters="sRGB">
<feFlood flood-opacity="0" result="BackgroundImageFix"/>
<feColorMatrix in="SourceAlpha" type="matrix" values="0 0 0 0 0 0 0 0 0 0 0 0 0 0 0 0 0 0 127 0" result="hardAlpha"/>
<feOffset dx="5.48449"/>
<feGaussianBlur stdDeviation="3.13399"/>
<feComposite in2="hardAlpha" operator="out"/>
<feColorMatrix type="matrix" values="0 0 0 0 0 0 0 0 0 0 0 0 0 0 0 0 0 0 0.05 0"/>
<feBlend mode="normal" in2="BackgroundImageFix" result="effect1_dropShadow_139_152"/>
<feBlend mode="normal" in="SourceGraphic" in2="effect1_dropShadow_139_152" result="shape"/>
</filter>
<linearGradient id="paint0_linear_139_152" x1="10.9942" y1="12.1736" x2="10.9942" y2="21.4481" gradientUnits="userSpaceOnUse">
<stop stop-color="#FCFF80"/>
<stop offset="0.401042" stop-color="#FDE870"/>
<stop offset="1" stop-color="#FFC759"/>
</linearGradient>
</defs>
</svg>
