<svg width="19" height="19" viewBox="0 0 19 19" fill="none" xmlns="http://www.w3.org/2000/svg">
<g clip-path="url(#clip0_594_1666)">
<path d="M19.0001 11.3911C18.9575 11.5521 18.9203 11.7148 18.8712 11.8732C18.523 12.9995 17.562 13.7474 16.4392 13.7663C16.1918 13.7705 15.9443 13.769 15.6973 13.7663C15.2981 13.7626 15.07 13.5179 15.07 13.0895C15.0685 11.0616 15.0814 9.0337 15.064 7.0058C15.0407 4.24054 13.0214 1.78107 10.4441 1.34633C7.53505 0.855802 4.85314 2.69738 4.10679 5.69896C3.97983 6.20896 3.93074 6.72896 3.93173 7.25686C3.93471 9.18001 3.93272 11.1026 3.93272 13.0258C3.93272 13.5074 3.79387 13.7121 3.34556 13.7679C1.91931 13.9448 0.696874 13.3974 0.170212 11.9921C0.0566477 11.6911 0.00209702 11.3758 0.0016011 11.0511C0.00060927 10.4869 -0.000878476 9.92212 0.0016011 9.35791C0.00854392 7.83159 1.13179 6.61791 2.56697 6.59896C2.74104 6.59686 2.77079 6.53633 2.78964 6.37054C3.00635 4.43159 3.82511 2.83159 5.24987 1.60054C9.12198 -1.74473 15.003 0.425275 16.095 5.5958C16.1501 5.85738 16.1913 6.12422 16.2121 6.39107C16.2245 6.54791 16.2622 6.59633 16.4169 6.59791C17.5982 6.60949 18.5895 7.42107 18.9094 8.61949C18.9421 8.74212 18.9342 8.8758 19.0001 8.98844V11.3905V11.3911Z" fill="#D33930"/>
<path d="M9.50074 18.9985C9.25327 18.9985 9.00581 19.0032 8.75885 18.9974C8.09779 18.9827 7.58204 18.4306 7.58154 17.7416C7.58055 17.0648 8.08986 16.499 8.73901 16.4806C9.24584 16.4658 9.75316 16.4664 10.26 16.4806C10.9086 16.4985 11.4184 17.0622 11.4189 17.7401C11.4194 18.4285 10.9037 18.9822 10.2431 18.9974C9.99566 19.0032 9.74869 18.9985 9.50123 18.9985H9.50074Z" fill="#D33930"/>
<path d="M6.47759 18.0911C4.56485 18.0805 2.92337 16.6627 2.5316 14.6869C2.50283 14.5411 2.5187 14.4737 2.68335 14.4953C2.84154 14.5163 3.04536 14.4442 3.15199 14.5263C3.25464 14.6048 3.25514 14.8295 3.30671 14.9879C3.76097 16.3942 5.03151 17.3653 6.43941 17.3821C6.59413 17.3842 6.78209 17.3263 6.89416 17.4C7.01318 17.4784 6.89615 17.6842 6.91449 17.8363C6.94524 18.09 6.93582 18.0916 6.70026 18.0916C6.62587 18.0916 6.55198 18.0916 6.47759 18.0916V18.0911Z" fill="#D33930"/>
</g>
<defs>
<clipPath id="clip0_594_1666">
<rect width="19" height="19" fill="white"/>
</clipPath>
</defs>
</svg>
