<svg width="16" height="19" viewBox="0 0 16 19" fill="none" xmlns="http://www.w3.org/2000/svg">
<path d="M8.28568 4.57153C7.66408 4.57153 7.05644 4.75586 6.5396 5.1012C6.02276 5.44654 5.61993 5.93739 5.38206 6.51167C5.14418 7.08595 5.08194 7.71788 5.20321 8.32753C5.32448 8.93718 5.62381 9.49719 6.06335 9.93672C6.50288 10.3763 7.06289 10.6756 7.67254 10.7969C8.28219 10.9181 8.91412 10.8559 9.4884 10.618C10.0627 10.3801 10.5535 9.97731 10.8989 9.46047C11.2442 8.94363 11.4285 8.33599 11.4285 7.71439C11.4285 6.88085 11.0974 6.08145 10.508 5.49205C9.91862 4.90265 9.11922 4.57153 8.28568 4.57153ZM8.28568 9.28582C7.97488 9.28582 7.67106 9.19366 7.41264 9.02098C7.15422 8.84831 6.95281 8.60289 6.83387 8.31575C6.71493 8.02861 6.68381 7.71265 6.74445 7.40782C6.80508 7.10299 6.95474 6.82299 7.17451 6.60322C7.39428 6.38345 7.67428 6.23379 7.97911 6.17316C8.28394 6.11252 8.5999 6.14364 8.88704 6.26258C9.17418 6.38152 9.4196 6.58293 9.59228 6.84135C9.76495 7.09977 9.85711 7.40359 9.85711 7.71439C9.85711 8.13116 9.69155 8.53086 9.39685 8.82556C9.10215 9.12026 8.70245 9.28582 8.28568 9.28582Z" fill="#D53B32"/>
<path d="M8 18.2857C7.33004 18.2889 6.66901 18.1385 6.07225 17.8469C5.4755 17.5553 4.96039 17.131 4.57006 16.6096C1.53794 12.6046 0 9.59384 0 7.66029C0 5.62866 0.842855 3.68023 2.34315 2.24365C3.84344 0.807064 5.87827 0 8 0C10.1217 0 12.1566 0.807064 13.6569 2.24365C15.1571 3.68023 16 5.62866 16 7.66029C16 9.59384 14.4621 12.6046 11.4299 16.6096C11.0396 17.131 10.5245 17.5553 9.92774 17.8469C9.33099 18.1385 8.66996 18.2889 8 18.2857ZM8 1.66309C6.33907 1.66491 4.74671 2.2975 3.57225 3.42208C2.39779 4.54667 1.73715 6.07141 1.73526 7.66182C1.73526 9.19311 3.24137 12.0249 5.97514 15.6352C6.20722 15.9413 6.51168 16.1904 6.86362 16.3622C7.21556 16.534 7.60497 16.6236 8 16.6236C8.39503 16.6236 8.78444 16.534 9.13638 16.3622C9.48832 16.1904 9.79278 15.9413 10.0249 15.6352C12.7586 12.0249 14.2647 9.19311 14.2647 7.66182C14.2628 6.07141 13.6022 4.54667 12.4277 3.42208C11.2533 2.2975 9.66093 1.66491 8 1.66309Z" fill="#D53B32"/>
</svg>
