<svg width="100" height="100" viewBox="0 0 100 100" fill="none" xmlns="http://www.w3.org/2000/svg">
<circle cx="50" cy="50" r="50" fill="#C4C4C4"/>
<path d="M77.7923 63.7466C74.7007 57.6425 69.8213 53.858 63.0194 52.5195C62.4558 52.395 61.8718 52.3907 61.3064 52.507C60.741 52.6232 60.2071 52.8574 59.7404 53.1938C55.5563 56.004 50.9649 56.7912 46.0412 55.7225C43.8278 55.2305 41.7397 54.2954 39.9057 52.9747C39.5832 52.7326 39.2142 52.558 38.8213 52.4615C38.4284 52.365 38.0197 52.3486 37.6202 52.4133C36.2074 52.6137 34.8198 52.9606 33.4805 53.4484C28.3948 55.4005 24.6533 58.8051 22.2559 63.6623C21.8844 64.4142 21.915 65.0531 22.3633 65.756C25.5367 70.7189 29.7122 74.6247 34.9615 77.3674C38.2253 79.0724 41.7688 80.1916 45.4276 80.6732C46.0548 80.7575 48.3011 81.0002 49.1413 81.0002H50.8643C50.9462 81.0002 53.2231 80.8198 53.6679 80.771C57.6436 80.3433 61.4998 79.1674 65.0288 77.3068C70.3497 74.505 74.5439 70.5098 77.7088 65.4391C78.0736 64.8508 78.1008 64.3467 77.7923 63.7466Z" fill="white"/>
<path d="M50.0124 51.1994C58.9379 51.1893 66.2851 43.9187 66.2834 35.0938C66.2817 26.2689 58.9327 19 50.0073 19C41.0819 19 33.7261 26.2824 33.7329 35.0989C33.7397 43.9153 41.1091 51.2078 50.0124 51.1994Z" fill="white"/>
</svg>
