<svg width="14" height="17" viewBox="0 0 14 17" fill="none" xmlns="http://www.w3.org/2000/svg">
<g clip-path="url(#clip0_602_1683)">
<path d="M9.20096 0C9.50717 0.0678209 9.8057 0.146945 10.0608 0.334499C10.4946 0.653508 10.6845 1.07592 10.7008 1.57495C10.7094 1.84582 10.6977 2.1171 10.7049 2.38796C10.7076 2.48677 10.6683 2.51063 10.5706 2.50686C10.4154 2.501 10.2594 2.49932 10.1047 2.50728C9.99748 2.51272 9.97939 2.47169 9.97848 2.38336C9.97486 2.06854 10.0029 1.75288 9.96265 1.43889C9.91245 1.0508 9.6302 0.768636 9.21679 0.69328C9.12361 0.676534 9.02727 0.668161 8.93228 0.667742C7.64138 0.666068 6.35093 0.665231 5.06003 0.667742C4.51996 0.66858 4.09976 0.954097 4.04322 1.37902C4.01066 1.62477 4.02558 1.87596 4.02423 2.12464C4.02197 2.5056 4.02378 2.5056 3.61895 2.5056C3.29826 2.5056 3.29284 2.5056 3.29962 2.21297C3.30821 1.8387 3.25303 1.46024 3.38059 1.09351C3.59317 0.4827 4.05272 0.137735 4.72757 0.0259561C4.74883 0.022607 4.76874 0.00921024 4.78909 0.000418647C6.26001 0.000418647 7.73048 0.000418647 9.20141 0.000418647L9.20096 0Z" fill="#D33930"/>
<path d="M6.9951 2.84049C8.99116 2.84049 10.9877 2.84217 12.9837 2.83923C13.3854 2.83882 13.7102 2.95562 13.9015 3.30142C14.1634 3.77449 13.878 4.35306 13.3216 4.48159C13.2108 4.50713 13.0977 4.51341 12.9837 4.51341C8.99116 4.51299 4.99859 4.51341 1.00602 4.51257C0.507571 4.51257 0.169693 4.30366 0.0412356 3.91893C-0.12793 3.41446 0.242063 2.89952 0.809716 2.85096C0.898822 2.84342 0.98838 2.84049 1.07794 2.84049C3.05048 2.84007 5.02256 2.84007 6.9951 2.84007V2.84049Z" fill="#D33930"/>
<path d="M12.7271 10.4934C12.7271 8.78411 12.7253 7.07435 12.7307 5.36501C12.7311 5.21974 12.6995 5.17537 12.5317 5.17578C8.84397 5.18081 5.1558 5.18081 1.46809 5.17578C1.30616 5.17578 1.26591 5.21179 1.26636 5.36208C1.27134 8.69786 1.26998 12.0341 1.27134 15.3698C1.27134 15.5076 1.27631 15.6474 1.30028 15.7831C1.42738 16.5023 2.01358 16.9955 2.76578 16.9967C5.58686 17.0013 8.40839 16.9992 11.2295 16.9975C11.5872 16.9975 11.9093 16.8954 12.1793 16.6697C12.59 16.326 12.7293 15.886 12.7284 15.3887C12.7253 13.7568 12.7271 12.1245 12.7271 10.4926V10.4934ZM4.69671 14.5221C4.69671 14.839 4.57684 15.0002 4.34028 15.0031C4.10418 15.006 3.97346 14.8369 3.97346 14.5279C3.97346 11.9901 3.97346 9.45185 3.97346 6.91401C3.97346 6.60505 4.10463 6.43801 4.343 6.44261C4.57775 6.4468 4.69716 6.60295 4.69716 6.90815C4.69716 8.18 4.69716 9.45185 4.69716 10.7237C4.69716 11.9955 4.69716 13.2561 4.69716 14.5225L4.69671 14.5221ZM7.36309 6.91275C7.36309 9.45059 7.36309 11.9889 7.36219 14.5267C7.36219 14.6087 7.35631 14.6933 7.33415 14.7724C7.29615 14.9093 7.12789 15.0115 6.97953 15.001C6.82032 14.9901 6.68146 14.8813 6.65477 14.7381C6.64165 14.6678 6.6403 14.5949 6.6403 14.5233C6.63939 13.2515 6.63984 11.9796 6.63984 10.7082C6.63984 9.43678 6.63984 8.198 6.63984 6.94289C6.63984 6.89308 6.63758 6.84326 6.6412 6.79386C6.65613 6.58495 6.79454 6.44763 6.99174 6.44303C7.18217 6.43884 7.3355 6.57783 7.36038 6.78046C7.36581 6.824 7.36264 6.86879 7.36264 6.91317L7.36309 6.91275ZM10.0236 14.584C10.0236 14.883 9.82277 15.0538 9.5636 14.9818C9.40981 14.9391 9.32478 14.8428 9.30804 14.6962C9.30171 14.6414 9.30352 14.5857 9.30352 14.5305C9.30352 13.259 9.30352 11.9872 9.30352 10.7157V6.95085C9.30352 6.92322 9.30352 6.89559 9.30352 6.86796C9.30533 6.595 9.43559 6.44135 9.66356 6.44303C9.88745 6.4447 10.0236 6.60505 10.0236 6.87172C10.0236 9.44264 10.0241 12.0136 10.0236 14.584Z" fill="#D33930"/>
</g>
<defs>
<clipPath id="clip0_602_1683">
<rect width="14" height="17" fill="white"/>
</clipPath>
</defs>
</svg>
