<svg width="13" height="13" viewBox="0 0 13 13" fill="none" xmlns="http://www.w3.org/2000/svg">
<path d="M13 2.36355C12.9936 2.35878 12.9825 2.35496 12.9816 2.34955C12.9333 2.0124 12.7626 1.74466 12.523 1.51066C12.169 1.16461 11.8238 0.810269 11.4717 0.461664C10.8552 -0.153091 10.0267 -0.154046 9.41179 0.459754C8.88213 0.98887 8.35247 1.5183 7.82282 2.04806C5.47432 4.39671 3.12551 6.74495 0.776372 9.09275C0.68453 9.18444 0.609848 9.28186 0.585696 9.41303C0.4411 10.2022 0.299681 10.9918 0.148411 11.78C0.102967 12.0182 0.081673 12.2617 0 12.4922V12.6953C0.0241523 12.8742 0.125743 12.9758 0.304767 13H0.482413C0.491629 12.993 0.50021 12.9815 0.510379 12.9796C1.51906 12.7931 2.52742 12.6049 3.53705 12.4228C3.67861 12.3982 3.80857 12.3288 3.90792 12.2248C6.78035 9.34999 9.65426 6.47582 12.5297 3.6023C12.5773 3.55454 12.625 3.50679 12.6685 3.45458C12.8366 3.26311 12.9442 3.02602 12.9778 2.77328C13.0022 2.73285 12.9698 2.68255 13 2.64276V2.36355ZM1.94077 11.9424C1.60899 12.0042 1.2769 12.0656 0.945437 12.1306C0.874251 12.1446 0.857091 12.1306 0.870756 12.0567C0.98262 11.4636 1.09321 10.8698 1.20222 10.2767C1.20431 10.2689 1.20787 10.2616 1.2127 10.2551L2.75051 11.7934C2.48547 11.8421 2.21344 11.8915 1.94077 11.9424ZM10.9722 4.08175L8.49591 6.55828C6.88406 8.17131 5.27273 9.78434 3.66194 11.3974C3.57741 11.4824 3.53705 11.4715 3.45982 11.3935C2.84076 10.7683 2.21863 10.1463 1.59342 9.52763C1.52223 9.45696 1.52446 9.42226 1.59342 9.35285C4.03598 6.91442 6.47654 4.47365 8.91508 2.03055C8.99294 1.95255 9.02726 1.96242 9.09844 2.03437C9.72068 2.66218 10.3457 3.28829 10.9734 3.9127C10.9998 3.93944 11.0249 3.96746 11.0538 3.99834C11.023 4.02763 10.9985 4.05564 10.9722 4.08175ZM12.0507 3.00219C11.9201 3.14035 11.7803 3.27025 11.6487 3.40778C11.6049 3.45394 11.582 3.4463 11.541 3.40491C10.8931 2.75461 10.244 2.10536 9.59356 1.45718C9.55606 1.42025 9.54844 1.39892 9.59007 1.35881C9.74007 1.21554 9.88371 1.06591 10.035 0.922969C10.1407 0.823771 10.2792 0.767096 10.424 0.763788C10.607 0.763788 10.7554 0.823005 10.874 0.940162C11.2712 1.3327 11.6703 1.72365 12.0581 2.12542C12.3098 2.3887 12.3012 2.73667 12.0507 3.00219Z" fill="#D33930"/>
</svg>
