<svg width="68" height="68" viewBox="0 0 68 68" fill="none" xmlns="http://www.w3.org/2000/svg">
<g clip-path="url(#clip0_1400_637)">
<path d="M34 68H20.1938C19.3719 67.8618 18.7767 67.3747 18.2063 66.7972C12.5509 61.1182 6.88302 55.4527 1.20277 49.8008C0.623528 49.2251 0.13994 48.6334 0 47.8115V20.1938C0.138168 19.3719 0.623528 18.7767 1.201 18.2063C6.90369 12.5402 12.5851 6.85763 18.2453 1.15849C18.8458 0.556215 19.4675 0.0956549 20.3178 0H33.9982C34.2799 0.210795 34.3047 0.531416 34.3065 0.834323C34.3253 5.00063 34.3253 9.16693 34.3065 13.3332C34.313 13.5786 34.2595 13.8218 34.1506 14.0418C33.9362 14.3589 33.5979 14.3766 33.2649 14.3961C32.7335 14.4209 32.202 14.3961 31.6706 14.4173C30.4572 14.4722 29.738 15.3296 29.8426 16.5306C30.0356 18.7289 30.1579 20.9342 30.3439 23.1325C30.5653 25.7507 30.746 28.3705 30.9497 30.9886C31.1091 33.0346 31.2898 35.0805 31.3943 37.13C31.4226 37.6827 31.5006 38.2301 31.5608 38.7792C31.6529 39.6366 32.2286 40.168 33.1409 40.3132C33.4863 40.3664 33.8494 40.3398 34.1205 40.6374C34.1822 40.7288 34.2244 40.8319 34.2445 40.9403C34.3313 42.5629 34.4092 44.1872 34.2019 45.8045C33.9982 46.297 33.5111 46.3041 33.1037 46.4156C31.8123 46.7699 30.932 47.5511 30.5316 48.8389C29.8992 50.8742 30.9798 52.8582 33.024 53.4569C33.4509 53.5827 33.961 53.5791 34.1966 54.0787C34.2845 54.304 34.322 54.5459 34.3065 54.7872C34.3218 58.8709 34.3218 62.9539 34.3065 67.0364C34.3118 67.3818 34.3259 67.7485 34 68Z" fill="#F15A3C"/>
<path d="M34.0107 14.0577C34.0107 9.37064 34.0107 4.68473 34.0107 0H47.8275C48.5361 0.122226 49.0994 0.483589 49.6184 1.00438C55.4049 6.81453 61.2021 12.6123 67.0099 18.3976C67.5299 18.8695 67.8829 19.4972 68.016 20.1867V47.8204C67.8764 48.5081 67.5178 49.132 66.9939 49.5988C61.1838 55.3854 55.3854 61.1837 49.5989 66.9939C49.1266 67.5142 48.4981 67.8673 47.808 68H33.9912C33.9912 63.3129 33.9912 58.627 33.9912 53.9423L34.0231 53.8502C34.2622 53.5791 34.6147 53.5738 34.9265 53.4835C36.6022 53.0017 37.6615 51.6253 37.6562 49.9195C37.6509 48.2136 36.5845 46.8585 34.8928 46.3767C34.6201 46.2987 34.3242 46.2739 34.0886 46.0897C34.0411 46.0452 34.0073 45.988 33.9912 45.925V40.6604L34.039 40.5559C34.2392 40.3327 34.5138 40.3504 34.7742 40.315C35.8653 40.1662 36.3418 39.6968 36.4588 38.6145C36.705 36.3329 36.813 34.0407 37.0008 31.7557C37.2222 29.1198 37.3958 26.4787 37.6119 23.8411C37.7784 21.8199 37.9325 19.7952 38.0477 17.7688C38.0725 17.3277 38.1699 16.8955 38.177 16.4526C38.1983 15.1312 37.5393 14.451 36.2285 14.3961C35.5199 14.3659 34.8114 14.5271 34.1347 14.2437C34.0755 14.1957 34.0323 14.1308 34.0107 14.0577Z" fill="#E33539"/>
<path d="M34.0107 40.6604C33.7237 40.6604 33.4367 40.6604 33.1515 40.6338C32.6573 40.6251 32.1844 40.4312 31.8265 40.0903C31.4686 39.7494 31.2517 39.2865 31.219 38.7934C30.8966 34.6979 30.5937 30.6007 30.2837 26.5052C30.0339 23.2016 29.7983 19.898 29.5291 16.5961C29.398 14.9877 30.1951 14.0807 31.8177 14.0737C32.5475 14.0737 33.2755 14.0595 34.0036 14.0542L33.9947 14.0931C34.0922 14.1666 34.1706 14.2624 34.2233 14.3724C34.276 14.4825 34.3015 14.6036 34.2976 14.7255C34.3136 14.9682 34.3207 15.2109 34.3207 15.4536C34.3207 23.387 34.3207 31.3216 34.3207 39.2575C34.3207 39.7233 34.4588 40.2459 34.0018 40.6179L34.0107 40.6604Z" fill="#E8F2FA"/>
<path d="M34.0105 53.9423C32.3295 53.8289 31.0487 53.0814 30.365 51.5102C29.7486 50.0931 29.9416 48.7362 30.8628 47.5086C31.6404 46.4688 32.7333 46.0029 34.0105 45.9321L34.0017 45.9728C34.3028 46.1747 34.3116 46.4918 34.3152 46.8001C34.3364 48.8903 34.3364 50.9817 34.3152 53.0743C34.3152 53.3825 34.3028 53.6996 34.0017 53.8998L34.0105 53.9423Z" fill="#E8F2FA"/>
<path d="M33.9946 40.6214V14.0967C34.836 14.0967 35.6757 14.0754 36.5153 14.0807C37.6667 14.0807 38.5453 14.9399 38.501 16.1019C38.4444 17.581 38.308 19.0566 38.1964 20.5304C38.0405 22.5781 37.8757 24.6258 37.7181 26.6735C37.5055 29.4263 37.2953 32.179 37.0875 34.9317C36.9971 36.1221 36.9334 37.3143 36.8094 38.4993C36.6429 40.0936 35.9998 40.6498 34.3932 40.6374C34.2603 40.6392 34.1275 40.6268 33.9946 40.6214Z" fill="#D5E8F7"/>
<path d="M33.9946 53.8997V45.9728C36.1663 45.886 37.9838 47.691 37.9838 49.9372C37.9838 52.1833 36.1681 53.9865 33.9946 53.8997Z" fill="#D5E8F7"/>
</g>
<defs>
<clipPath id="clip0_1400_637">
<rect width="68" height="68" fill="white"/>
</clipPath>
</defs>
</svg>
