<svg width="18" height="24" viewBox="0 0 18 24" fill="none" xmlns="http://www.w3.org/2000/svg">
<path d="M13 0H12.87C12.4225 0.00425181 11.989 0.157013 11.6377 0.434299C11.2864 0.711585 11.0371 1.09769 10.929 1.532C10.8132 1.95484 10.5617 2.32792 10.2132 2.59385C9.86465 2.85979 9.4384 3.00383 9 3.00383C8.56159 3.00383 8.13534 2.85979 7.7868 2.59385C7.43827 2.32792 7.18677 1.95484 7.071 1.532C6.96289 1.09769 6.71362 0.711585 6.3623 0.434299C6.01099 0.157013 5.57754 0.00425181 5.13 0L5 0C3.6744 0.00158786 2.40356 0.528882 1.46622 1.46622C0.528882 2.40356 0.00158786 3.6744 0 5V21C0 21.7956 0.31607 22.5587 0.878679 23.1213C1.44129 23.6839 2.20435 24 3 24H5.13C5.57754 23.9957 6.01099 23.843 6.3623 23.5657C6.71362 23.2884 6.96289 22.9023 7.071 22.468C7.18677 22.0452 7.43827 21.6721 7.7868 21.4061C8.13534 21.1402 8.56159 20.9962 9 20.9962C9.4384 20.9962 9.86465 21.1402 10.2132 21.4061C10.5617 21.6721 10.8132 22.0452 10.929 22.468C11.0371 22.9023 11.2864 23.2884 11.6377 23.5657C11.989 23.843 12.4225 23.9957 12.87 24H15C15.7956 24 16.5587 23.6839 17.1213 23.1213C17.6839 22.5587 18 21.7956 18 21V5C17.9984 3.6744 17.4711 2.40356 16.5338 1.46622C15.5964 0.528882 14.3256 0.00158786 13 0V0ZM15 22L12.857 21.937C12.6221 21.0884 12.1138 20.341 11.4109 19.8108C10.708 19.2805 9.84978 18.997 8.96933 19.0041C8.08887 19.0113 7.23538 19.3088 6.54122 19.8505C5.84705 20.3921 5.35101 21.1477 5.13 22H3C2.73478 22 2.48043 21.8946 2.29289 21.7071C2.10536 21.5196 2 21.2652 2 21V17H4C4.26521 17 4.51957 16.8946 4.7071 16.7071C4.89464 16.5196 5 16.2652 5 16C5 15.7348 4.89464 15.4804 4.7071 15.2929C4.51957 15.1054 4.26521 15 4 15H2V5C2 4.20435 2.31607 3.44129 2.87868 2.87868C3.44129 2.31607 4.20435 2 5 2L5.143 2.063C5.37722 2.90643 5.88099 3.65004 6.57741 4.18035C7.27384 4.71066 8.12465 4.99852 9 5C9.88715 4.99245 10.7476 4.6953 11.4503 4.15376C12.153 3.61222 12.6596 2.85594 12.893 2H13C13.7956 2 14.5587 2.31607 15.1213 2.87868C15.6839 3.44129 16 4.20435 16 5V15H14C13.7348 15 13.4804 15.1054 13.2929 15.2929C13.1054 15.4804 13 15.7348 13 16C13 16.2652 13.1054 16.5196 13.2929 16.7071C13.4804 16.8946 13.7348 17 14 17H16V21C16 21.2652 15.8946 21.5196 15.7071 21.7071C15.5196 21.8946 15.2652 22 15 22Z" fill="white"/>
<path d="M10 15H8C7.73478 15 7.48043 15.1054 7.29289 15.2929C7.10536 15.4804 7 15.7348 7 16C7 16.2652 7.10536 16.5196 7.29289 16.7071C7.48043 16.8946 7.73478 17 8 17H10C10.2652 17 10.5196 16.8946 10.7071 16.7071C10.8947 16.5196 11 16.2652 11 16C11 15.7348 10.8947 15.4804 10.7071 15.2929C10.5196 15.1054 10.2652 15 10 15Z" fill="white"/>
</svg>
