<svg width="18" height="24" viewBox="0 0 18 24" fill="none" xmlns="http://www.w3.org/2000/svg">
<path d="M3 24H5.13C5.57754 23.9957 6.01099 23.843 6.36231 23.5657C6.71362 23.2884 6.9629 22.9023 7.071 22.468C7.18677 22.0452 7.43827 21.6721 7.78681 21.4061C8.13534 21.1402 8.5616 20.9962 9 20.9962C9.4384 20.9962 9.86466 21.1402 10.2132 21.4061C10.5617 21.6721 10.8132 22.0452 10.929 22.468C11.0371 22.9023 11.2864 23.2884 11.6377 23.5657C11.989 23.843 12.4225 23.9957 12.87 24H15C15.7956 24 16.5587 23.6839 17.1213 23.1213C17.6839 22.5587 18 21.7956 18 21V17H14C13.7348 17 13.4804 16.8946 13.2929 16.7071C13.1054 16.5196 13 16.2652 13 16C13 15.7348 13.1054 15.4804 13.2929 15.2929C13.4804 15.1054 13.7348 15 14 15H18V5C17.9984 3.67441 17.4711 2.40356 16.5338 1.46622C15.5964 0.528882 14.3256 0.00158786 13 0L12.87 0C12.4225 0.00425181 11.989 0.157013 11.6377 0.434299C11.2864 0.711585 11.0371 1.09769 10.929 1.532C10.8132 1.95484 10.5617 2.32792 10.2132 2.59385C9.86466 2.85979 9.4384 3.00383 9 3.00383C8.5616 3.00383 8.13534 2.85979 7.78681 2.59385C7.43827 2.32792 7.18677 1.95484 7.071 1.532C6.9629 1.09769 6.71362 0.711585 6.36231 0.434299C6.01099 0.157013 5.57754 0.00425181 5.13 0L5 0C3.67441 0.00158786 2.40356 0.528882 1.46622 1.46622C0.528882 2.40356 0.00158786 3.67441 0 5V15H4C4.26522 15 4.51957 15.1054 4.70711 15.2929C4.89464 15.4804 5 15.7348 5 16C5 16.2652 4.89464 16.5196 4.70711 16.7071C4.51957 16.8946 4.26522 17 4 17H0V21C0 21.7956 0.316071 22.5587 0.87868 23.1213C1.44129 23.6839 2.20435 24 3 24ZM8 15H10C10.2652 15 10.5196 15.1054 10.7071 15.2929C10.8946 15.4804 11 15.7348 11 16C11 16.2652 10.8946 16.5196 10.7071 16.7071C10.5196 16.8946 10.2652 17 10 17H8C7.73478 17 7.48043 16.8946 7.29289 16.7071C7.10536 16.5196 7 16.2652 7 16C7 15.7348 7.10536 15.4804 7.29289 15.2929C7.48043 15.1054 7.73478 15 8 15Z" fill="white"/>
</svg>
