<svg width="155" height="152" viewBox="0 0 155 152" fill="none" xmlns="http://www.w3.org/2000/svg">
<path d="M98.4004 34.1841H56.6346C55.6828 34.1852 54.7704 34.5656 54.0974 35.2417C53.4244 35.9178 53.0458 36.8345 53.0446 37.7907V131.045L52.566 131.192L42.3202 134.344C41.8346 134.493 41.3101 134.442 40.8618 134.203C40.4136 133.963 40.0782 133.555 39.9293 133.068L9.45269 33.0564C9.30437 32.5686 9.35492 32.0415 9.59323 31.5911C9.83153 31.1407 10.2381 30.8038 10.7236 30.6544L26.5123 25.7975L72.2846 11.7222L88.0732 6.86526C88.3135 6.79097 88.566 6.76501 88.8163 6.78886C89.0666 6.81272 89.3097 6.88592 89.5318 7.00429C89.7539 7.12265 89.9505 7.28385 90.1105 7.47866C90.2705 7.67347 90.3907 7.89806 90.4642 8.13959L98.2544 33.7032L98.4004 34.1841Z" fill="#F2F2F2"/>
<path d="M107.514 33.7034L98.1252 2.89341C97.969 2.38006 97.7136 1.90266 97.3737 1.4885C97.0338 1.07433 96.6159 0.731523 96.1441 0.479651C95.6722 0.22778 95.1556 0.0717834 94.6237 0.020582C94.0918 -0.0306195 93.5551 0.0239774 93.0442 0.181247L70.8462 7.00735L25.0764 21.0851L2.87839 27.9136C1.84718 28.2317 0.983741 28.9479 0.477588 29.9049C-0.0285657 30.8619 -0.13608 31.9816 0.178649 33.0182L32.2683 138.314C32.524 139.151 33.0398 139.883 33.7402 140.404C34.4406 140.924 35.2886 141.206 36.1599 141.207C36.5631 141.207 36.9641 141.146 37.3493 141.026L52.566 136.347L53.0447 136.198V135.696L52.566 135.842L37.2081 140.567C36.2979 140.846 35.3148 140.751 34.4744 140.302C33.6341 139.854 33.0051 139.088 32.7254 138.175L0.638265 32.8763C0.499713 32.4235 0.451424 31.9478 0.496161 31.4762C0.540899 31.0047 0.67778 30.5466 0.898975 30.1283C1.12017 29.71 1.42133 29.3396 1.78521 29.0384C2.14909 28.7372 2.56854 28.511 3.01955 28.3729L25.2176 21.5444L70.9874 7.46899L93.1855 0.640493C93.5276 0.535612 93.8832 0.482136 94.2409 0.481801C95.0084 0.483533 95.7553 0.732137 96.372 1.1912C96.9888 1.65027 97.443 2.29567 97.6682 3.03287L107.014 33.7034L107.162 34.1843H107.66L107.514 33.7034Z" fill="#3F3D56"/>
<path d="M29.3614 30.7334C28.9001 30.733 28.451 30.5842 28.0801 30.3087C27.7092 30.0332 27.4359 29.6455 27.3004 29.2025L24.2177 19.0868C24.1349 18.8151 24.1061 18.5296 24.1331 18.2467C24.1601 17.9638 24.2423 17.6891 24.375 17.4381C24.5077 17.1871 24.6883 16.9649 24.9066 16.7841C25.1248 16.6032 25.3763 16.4673 25.6468 16.3842L67.7546 3.43318C68.3009 3.26572 68.8909 3.32283 69.3953 3.59198C69.8997 3.86113 70.2772 4.32032 70.4449 4.86878L73.5276 14.9846C73.6941 15.5334 73.6372 16.1262 73.3694 16.6328C73.1015 17.1395 72.6445 17.5188 72.0986 17.6874L29.9907 30.6384C29.7867 30.7012 29.5747 30.7333 29.3614 30.7334Z" fill="#D33930"/>
<path d="M45.5098 10.809C48.1534 10.809 50.2964 8.65604 50.2964 6.00021C50.2964 3.34438 48.1534 1.19141 45.5098 1.19141C42.8662 1.19141 40.7231 3.34438 40.7231 6.00021C40.7231 8.65604 42.8662 10.809 45.5098 10.809Z" fill="#D33930"/>
<path d="M45.5098 9.04525C47.1838 9.04525 48.5409 7.68191 48.5409 6.00016C48.5409 4.31841 47.1838 2.95508 45.5098 2.95508C43.8358 2.95508 42.4788 4.31841 42.4788 6.00016C42.4788 7.68191 43.8358 9.04525 45.5098 9.04525Z" fill="white"/>
<path d="M144.23 139.978H63.3358C62.7965 139.977 62.2794 139.762 61.898 139.379C61.5167 138.996 61.3021 138.476 61.3015 137.934V40.5559C61.3021 40.0141 61.5166 39.4946 61.898 39.1115C62.2794 38.7283 62.7965 38.5128 63.3358 38.5122H144.23C144.769 38.5128 145.286 38.7284 145.668 39.1115C146.049 39.4946 146.264 40.0141 146.264 40.5559V137.934C146.264 138.476 146.049 138.996 145.668 139.379C145.286 139.762 144.769 139.977 144.23 139.978Z" fill="#E6E6E6"/>
<path d="M107.014 33.7036H56.6346C55.556 33.7051 54.522 34.1363 53.7593 34.9025C52.9966 35.6687 52.5674 36.7075 52.5659 37.7911V135.843L53.0446 135.696V37.7911C53.0457 36.8349 53.4243 35.9182 54.0973 35.2421C54.7703 34.566 55.6828 34.1857 56.6346 34.1845H107.162L107.014 33.7036ZM150.931 33.7036H56.6346C55.556 33.7051 54.522 34.1363 53.7593 34.9025C52.9966 35.6687 52.5674 36.7075 52.5659 37.7911V147.913C52.5674 148.996 52.9966 150.035 53.7593 150.801C54.522 151.568 55.556 151.999 56.6346 152H150.931C152.01 151.999 153.044 151.568 153.807 150.801C154.569 150.035 154.998 148.996 155 147.913V37.7911C154.998 36.7075 154.569 35.6687 153.807 34.9025C153.044 34.1363 152.01 33.7051 150.931 33.7036ZM154.521 147.913C154.52 148.869 154.142 149.786 153.469 150.462C152.796 151.138 151.883 151.518 150.931 151.519H56.6346C55.6828 151.518 54.7703 151.138 54.0973 150.462C53.4243 149.786 53.0457 148.869 53.0446 147.913V37.7911C53.0457 36.8349 53.4243 35.9182 54.0973 35.2421C54.7703 34.566 55.6828 34.1857 56.6346 34.1845H150.931C151.883 34.1857 152.796 34.566 153.469 35.2421C154.142 35.9182 154.52 36.8349 154.521 37.7911V147.913Z" fill="#3F3D56"/>
<path d="M125.802 44.2828H81.7646C81.1935 44.2821 80.646 44.0539 80.2422 43.6483C79.8384 43.2426 79.6112 42.6925 79.6106 42.1188V31.5394C79.6112 30.9657 79.8384 30.4157 80.2422 30.01C80.646 29.6043 81.1935 29.3761 81.7646 29.3755H125.802C126.373 29.3761 126.92 29.6043 127.324 30.01C127.728 30.4157 127.955 30.9657 127.956 31.5394V42.1188C127.955 42.6925 127.728 43.2426 127.324 43.6483C126.92 44.0539 126.373 44.2821 125.802 44.2828Z" fill="#D33930"/>
<path d="M103.783 30.0966C106.427 30.0966 108.57 27.9436 108.57 25.2878C108.57 22.632 106.427 20.479 103.783 20.479C101.139 20.479 98.9963 22.632 98.9963 25.2878C98.9963 27.9436 101.139 30.0966 103.783 30.0966Z" fill="#D33930"/>
<path d="M103.783 28.2169C105.393 28.2169 106.698 26.9055 106.698 25.2879C106.698 23.6702 105.393 22.3589 103.783 22.3589C102.173 22.3589 100.867 23.6702 100.867 25.2879C100.867 26.9055 102.173 28.2169 103.783 28.2169Z" fill="white"/>
<path d="M80.9447 84.5455V94H79.4213L74.9664 87.56H74.8879V94H73.1752V84.5455H74.7079L79.1582 90.9901H79.2413V84.5455H80.9447ZM85.8301 94.1385C85.1377 94.1385 84.5375 93.9862 84.0297 93.6815C83.5219 93.3768 83.1279 92.9505 82.8479 92.4027C82.5709 91.8549 82.4324 91.2147 82.4324 90.4822C82.4324 89.7498 82.5709 89.1081 82.8479 88.5572C83.1279 88.0063 83.5219 87.5785 84.0297 87.2738C84.5375 86.9691 85.1377 86.8168 85.8301 86.8168C86.5226 86.8168 87.1227 86.9691 87.6305 87.2738C88.1384 87.5785 88.5308 88.0063 88.8078 88.5572C89.0878 89.1081 89.2279 89.7498 89.2279 90.4822C89.2279 91.2147 89.0878 91.8549 88.8078 92.4027C88.5308 92.9505 88.1384 93.3768 87.6305 93.6815C87.1227 93.9862 86.5226 94.1385 85.8301 94.1385ZM85.8394 92.7997C86.2148 92.7997 86.5287 92.6966 86.7811 92.4904C87.0335 92.2811 87.2212 92.0011 87.3443 91.6502C87.4705 91.2994 87.5336 90.9085 87.5336 90.4776C87.5336 90.0437 87.4705 89.6513 87.3443 89.3004C87.2212 88.9465 87.0335 88.6649 86.7811 88.4556C86.5287 88.2463 86.2148 88.1417 85.8394 88.1417C85.4546 88.1417 85.1346 88.2463 84.8791 88.4556C84.6268 88.6649 84.4375 88.9465 84.3113 89.3004C84.1882 89.6513 84.1266 90.0437 84.1266 90.4776C84.1266 90.9085 84.1882 91.2994 84.3113 91.6502C84.4375 92.0011 84.6268 92.2811 84.8791 92.4904C85.1346 92.6966 85.4546 92.7997 85.8394 92.7997ZM93.9447 94V84.5455H100.094V85.9812H95.6574V88.5479H99.7753V89.9837H95.6574V92.5643H100.131V94H93.9447ZM108.101 86.9091L105.576 94H103.729L101.204 86.9091H102.986L104.616 92.1765H104.69L106.324 86.9091H108.101ZM112.156 94.1385C111.445 94.1385 110.831 93.9908 110.314 93.6953C109.8 93.3968 109.404 92.9751 109.127 92.4304C108.85 91.8826 108.712 91.2378 108.712 90.4961C108.712 89.7667 108.85 89.1265 109.127 88.5756C109.407 88.0217 109.798 87.5908 110.3 87.283C110.801 86.9722 111.391 86.8168 112.068 86.8168C112.505 86.8168 112.917 86.8875 113.305 87.0291C113.696 87.1676 114.041 87.383 114.339 87.6754C114.641 87.9678 114.878 88.3402 115.05 88.7926C115.222 89.242 115.309 89.7775 115.309 90.3991V90.9116H109.496V89.7852H113.707C113.704 89.4651 113.634 89.1804 113.499 88.9311C113.364 88.6787 113.174 88.4802 112.931 88.3356C112.691 88.1909 112.411 88.1186 112.091 88.1186C111.749 88.1186 111.449 88.2017 111.191 88.3679C110.932 88.531 110.731 88.7464 110.586 89.0142C110.444 89.2789 110.372 89.5697 110.369 89.8867V90.87C110.369 91.2824 110.444 91.6364 110.595 91.9318C110.746 92.2242 110.957 92.4489 111.228 92.6058C111.499 92.7597 111.816 92.8366 112.179 92.8366C112.422 92.8366 112.642 92.8028 112.839 92.7351C113.036 92.6643 113.207 92.5612 113.351 92.4258C113.496 92.2904 113.605 92.1226 113.679 91.9226L115.239 92.098C115.141 92.5104 114.953 92.8705 114.676 93.1783C114.402 93.483 114.051 93.7199 113.624 93.8892C113.196 94.0554 112.706 94.1385 112.156 94.1385ZM118.394 89.8452V94H116.722V86.9091H118.32V88.114H118.403C118.566 87.717 118.826 87.4015 119.183 87.1676C119.543 86.9337 119.988 86.8168 120.517 86.8168C121.007 86.8168 121.433 86.9214 121.796 87.1307C122.162 87.34 122.445 87.6431 122.645 88.0401C122.848 88.4371 122.949 88.9188 122.945 89.4851V94H121.274V89.7436C121.274 89.2696 121.151 88.8988 120.905 88.631C120.662 88.3633 120.325 88.2294 119.894 88.2294C119.602 88.2294 119.342 88.294 119.114 88.4233C118.889 88.5495 118.712 88.7326 118.583 88.9727C118.457 89.2127 118.394 89.5036 118.394 89.8452ZM128.185 86.9091V88.2017H124.109V86.9091H128.185ZM125.115 85.2102H126.786V91.8672C126.786 92.0919 126.82 92.2642 126.888 92.3842C126.959 92.5012 127.051 92.5812 127.165 92.6243C127.279 92.6674 127.405 92.6889 127.543 92.6889C127.648 92.6889 127.744 92.6812 127.83 92.6658C127.919 92.6504 127.987 92.6366 128.033 92.6243L128.314 93.9308C128.225 93.9615 128.097 93.9954 127.931 94.0323C127.768 94.0692 127.568 94.0908 127.331 94.0969C126.913 94.1093 126.536 94.0462 126.2 93.9077C125.865 93.7661 125.598 93.5476 125.401 93.2521C125.208 92.9567 125.112 92.5874 125.115 92.1442V85.2102ZM135.086 88.7834L133.562 88.9496C133.519 88.7957 133.444 88.651 133.336 88.5156C133.231 88.3802 133.09 88.271 132.911 88.1879C132.733 88.1048 132.514 88.0632 132.256 88.0632C131.908 88.0632 131.616 88.1386 131.379 88.2894C131.145 88.4402 131.029 88.6357 131.032 88.8757C131.029 89.0819 131.105 89.2496 131.259 89.3789C131.416 89.5082 131.674 89.6143 132.034 89.6974L133.244 89.956C133.915 90.1006 134.413 90.3299 134.739 90.6438C135.069 90.9577 135.235 91.3686 135.238 91.8764C135.235 92.3227 135.104 92.7166 134.846 93.0582C134.59 93.3968 134.235 93.6615 133.779 93.8523C133.324 94.0431 132.8 94.1385 132.21 94.1385C131.342 94.1385 130.643 93.9569 130.114 93.5938C129.584 93.2275 129.269 92.7182 129.167 92.0657L130.797 91.9087C130.871 92.2288 131.028 92.4704 131.268 92.6335C131.508 92.7966 131.82 92.8782 132.205 92.8782C132.602 92.8782 132.92 92.7966 133.161 92.6335C133.404 92.4704 133.525 92.2688 133.525 92.0288C133.525 91.8256 133.447 91.6579 133.29 91.5256C133.136 91.3932 132.896 91.2917 132.57 91.2209L131.36 90.967C130.68 90.8254 130.177 90.5869 129.851 90.2514C129.524 89.9129 129.363 89.4851 129.366 88.968C129.363 88.531 129.481 88.1525 129.721 87.8324C129.964 87.5092 130.301 87.2599 130.732 87.0845C131.166 86.906 131.666 86.8168 132.233 86.8168C133.064 86.8168 133.718 86.9937 134.195 87.3477C134.675 87.7016 134.972 88.1802 135.086 88.7834Z" fill="#767676"/>
</svg>
