<svg width="168" height="171" viewBox="0 0 168 171" fill="none" xmlns="http://www.w3.org/2000/svg">
<path d="M136.778 36.3523H66.8939C48.9687 37.5416 49.0479 57.2484 49.0479 57.2484V151.418H119.02V57.2484C119.02 57.2484 119.351 37.4763 136.778 36.3523Z" fill="#D33930"/>
<path d="M44.9968 58.4397H44.1523V130.918H44.9968V58.4397Z" fill="#D33930"/>
<path d="M124.865 25.3206H82.1433V1.68555H124.865V25.3206ZM82.9877 24.4778H124.021V2.5283H82.9877V24.4778Z" fill="#D33930"/>
<path d="M44.9976 49.9332H2.27563V20.2114H44.9976V49.9332ZM3.12007 49.0905H44.1532V21.0542H3.12007V49.0905Z" fill="#D33930"/>
<path d="M165.947 97.2601H123.225V73.5366H165.947V97.2601ZM124.07 96.4174H165.103V74.3794H124.07V96.4174Z" fill="#D33930"/>
<path d="M133.984 35.0732C116.557 36.1973 116.226 55.9704 116.226 55.9704V150.139H46.2539V55.9704C46.2539 55.9704 46.1748 36.2636 64.1 35.0732H133.984Z" fill="#FFF9F5"/>
<path d="M103.503 59.6733H55.4412V63.9061H103.503V59.6733Z" fill="#D53B32" fill-opacity="0.6"/>
<path d="M96.4796 69.4609H55.4412V72.459H96.4796V69.4609Z" fill="#D53B32" fill-opacity="0.6"/>
<path d="M76.0707 77.3743H55.4412V81.8272H76.0707V77.3743Z" fill="#D53B32" fill-opacity="0.6"/>
<path d="M103.504 77.3743H82.1675V81.8272H103.504V77.3743Z" fill="#D53B32" fill-opacity="0.6"/>
<path d="M88.3065 85.9492H55.4412V89.1232H88.3065V85.9492Z" fill="#D53B32" fill-opacity="0.6"/>
<path d="M92.4706 93.8848H55.4412V95.6482H92.4706V93.8848Z" fill="#D53B32" fill-opacity="0.6"/>
<path d="M99.9692 101.821H55.4412V103.584H99.9692V101.821Z" fill="#D53B32" fill-opacity="0.6"/>
<path d="M76.2301 119.613H55.2839V109.598H76.2301V119.613ZM55.6006 119.297H75.9134V109.914H55.6006V119.297Z" fill="#D53B32" fill-opacity="0.6"/>
<path d="M99.9703 109.756H81.2397V112.048H99.9703V109.756Z" fill="#D53B32" fill-opacity="0.6"/>
<path d="M94.5153 114.606H81.2397V116.898H94.5153V114.606Z" fill="#D53B32" fill-opacity="0.6"/>
<path d="M95.4852 125.627H55.4412V127.391H95.4852V125.627Z" fill="#D53B32" fill-opacity="0.6"/>
<path d="M76.5341 133.563H55.4412V135.326H76.5341V133.563Z" fill="#D53B32" fill-opacity="0.6"/>
<path d="M40.8863 28.6821H8.31128V31.0629H40.8863V28.6821Z" fill="#DED4CE"/>
<path d="M33.9145 33.8828H8.31128V36.2636H33.9145V33.8828Z" fill="#DED4CE"/>
<path d="M37.04 39.0837H8.31128V41.4645H37.04V39.0837Z" fill="#DED4CE"/>
<path d="M156.288 81.6069H129.386V83.9877H156.288V81.6069Z" fill="#DED4CE"/>
<path d="M159.572 86.8088H129.386V89.1896H159.572V86.8088Z" fill="#DED4CE"/>
<path d="M120.291 7.11182H87.4421V9.4926H120.291V7.11182Z" fill="#DED4CE"/>
<path d="M113.26 12.3127H87.4421V14.6935H113.26V12.3127Z" fill="#DED4CE"/>
<path d="M116.411 17.5134H87.4421V19.8942H116.411V17.5134Z" fill="#DED4CE"/>
<path d="M134.406 112.998H121.438V112.156H133.562V97.7646H134.406V112.998Z" fill="#DED4CE"/>
<path d="M72.2961 33.6618H71.4517V29.4512H99.547V26.5205H100.391V30.2939H72.2961V33.6618Z" fill="#DED4CE"/>
<path d="M40.8864 83.1312H26.1289V51.3857H26.9733V82.2885H40.8864V83.1312Z" fill="#DED4CE"/>
<path d="M121.465 70.232H120.621V60.6457C120.61 60.4877 119.585 42.0778 135.152 39.3999L135.295 40.23C120.469 42.7815 121.454 60.4403 121.468 60.6183L121.465 70.232Z" fill="#D33930"/>
<path d="M168.001 88.6598H167.157V72.4167H149.688V71.574H168.001V88.6598Z" fill="#D33930"/>
<path d="M16.6227 52.3529H0V36.7219H0.844433V51.5101H16.6227V52.3529Z" fill="#D33930"/>
<path d="M81.0583 12.3126H80.2139V0H100.838V0.842754H81.0583V12.3126Z" fill="#D33930"/>
<path d="M121.86 154.208H106.728V153.365H121.016V130.509H121.86V154.208Z" fill="#D53B32" fill-opacity="0.6"/>
<path d="M110.3 138.238H97.0835V125.049H110.3V138.238ZM98.3501 136.974H109.033V126.313H98.3501V136.974Z" fill="#D53B32" fill-opacity="0.6"/>
<path d="M103.897 134.432L99.2451 130.055L100.693 128.522L103.993 131.627L111.227 125.695L112.566 127.323L103.897 134.432Z" fill="#D53B32" fill-opacity="0.6"/>
<g style="mix-blend-mode:hard-light" opacity="0.24">
<path d="M124.566 84.8663C114.693 67.8975 92.8993 62.1278 75.8976 71.9838C74.2191 72.9554 72.6228 74.062 71.1245 75.2926V83.4431C73.3099 80.8843 75.9155 78.7152 78.83 77.0287C93.0418 68.7908 111.253 73.6134 119.507 87.797C121.959 91.9937 123.337 96.7288 123.518 101.583C123.532 101.951 123.54 102.321 123.54 102.684C123.54 112.921 118.231 122.883 108.722 128.388C96.0786 135.713 80.2687 132.707 71.1245 121.969V130.126C73.2579 131.884 75.5912 133.384 78.0763 134.597H109.482C110.221 134.237 110.94 133.848 111.658 133.438C128.661 123.583 134.441 101.837 124.566 84.8663Z" fill="#3F444F"/>
</g>
<path d="M21.9237 171.016L66.1233 134.25L59.8599 126.751L15.6604 163.516L21.9237 171.016Z" fill="#D33930"/>
<path d="M65.373 133.356L67.7341 131.392L62.9805 125.7L60.6194 127.664L65.373 133.356Z" fill="#E66947"/>
<path d="M60.1965 122.676C70.0711 139.647 91.8628 145.415 108.864 135.56C125.866 125.705 131.647 103.957 121.773 86.989C111.898 70.0212 90.1063 64.2515 73.1047 74.1054C56.1031 83.9593 50.3219 105.707 60.1965 122.676ZM65.2515 119.747C63.2891 116.374 62.0116 112.649 61.4918 108.783C60.9721 104.918 61.2203 100.988 62.2223 97.2186C63.2243 93.4489 64.9605 89.9132 67.3318 86.8132C69.703 83.7132 72.6629 81.1097 76.0423 79.1514C90.2541 70.9145 108.465 75.7361 116.718 89.9196C119.169 94.1165 120.547 98.8515 120.729 103.706C121.123 114.325 115.78 124.806 105.931 130.514C91.7161 138.751 73.509 133.93 65.2515 119.747Z" fill="#494F5C"/>
<path opacity="0.3" d="M63 94.7435C63 94.7435 93.9907 71.2591 121.112 102.576C120.93 97.7213 119.552 92.9863 117.101 88.7894C108.851 74.6059 90.6394 69.7843 76.4286 78.0212C70.0158 81.7246 65.225 87.6904 63 94.7435Z" fill="#C2C2C2"/>
</svg>
