<svg width="107" height="107" viewBox="0 0 107 107" fill="none" xmlns="http://www.w3.org/2000/svg">
<path d="M106.16 0C105.81 0 105.464 0 105.115 0C104.794 0.343623 104.484 0.69842 104.152 1.02807C96.3501 8.83641 88.5372 16.6336 80.755 24.4615C80.191 25.0286 79.8755 25.0342 79.2723 24.5257C76.9435 22.5646 74.3187 21.0699 71.4957 19.9385C70.9987 19.7401 70.8004 19.5194 70.82 18.9663C70.8646 17.779 70.6524 16.614 70.2866 15.4798C68.6001 10.2472 63.2919 6.81379 58.0926 7.58764C52.1282 8.47603 48.1017 12.9403 47.99 18.8741C47.9788 19.5278 47.7861 19.796 47.2249 19.9972C45.717 20.5419 44.2985 21.2739 42.9415 22.1232C38.524 24.8917 34.7684 28.2748 32.8836 33.3146C31.5181 36.966 31.3143 40.7794 31.4511 44.6263C31.627 49.5655 32.2692 54.4824 32.1827 59.4356C32.071 65.7884 30.4598 71.6495 26.5925 76.7983C25.7799 77.8822 25.0818 79.05 24.4926 80.2736C24.1995 80.8798 23.8113 81.3883 23.3394 81.8632C15.8728 89.3168 8.41449 96.7815 0.956213 104.243C0.688151 104.512 0.403335 104.783 0.199496 105.098C-0.149544 105.643 -0.0183049 106.182 0.420089 106.615C0.866859 107.057 1.40578 107.135 1.93632 106.763C2.21834 106.565 2.45848 106.305 2.7042 106.059C7.9733 100.79 13.2396 95.5187 18.5143 90.2554C18.7768 89.9928 18.9834 89.6492 19.3799 89.5347C19.1928 92.3563 20.1338 94.4264 22.5939 96.5245C25.5565 99.0499 29.0581 100.564 32.7076 101.751C41.1963 104.512 49.9642 105.439 58.8325 105.481C68.0891 105.526 77.2423 104.637 86.1051 101.751C89.9222 100.508 93.6108 98.9549 96.5958 96.1613C100.474 92.5351 100.43 88.4032 96.5539 84.7854C96.4004 84.6429 96.2496 84.4977 96.082 84.3747C95.8475 84.2015 95.7107 83.9892 95.6409 83.7015C94.9093 80.7793 93.3149 78.2985 91.6199 75.868C90.1595 73.7755 89.0259 71.5182 88.2077 69.1017C86.4067 63.7741 86.4821 58.2873 86.8339 52.7782C87.0824 48.8531 87.4985 44.9336 87.3561 40.9917C87.1774 35.9966 85.9487 31.3647 82.4835 27.5708C81.9641 27.0009 81.9864 26.7355 82.5254 26.2019C90.2768 18.4914 98.0004 10.7529 105.73 3.01717C106.168 2.57857 106.578 2.11482 107 1.66224V1.04484C106.905 0.550355 106.768 0.0893978 106.165 0H106.16ZM50.5729 17.6784C51.028 13.8092 54.3509 10.5964 58.4388 10.074C62.3369 9.57674 66.2685 11.9681 67.7065 15.7145C68.0807 16.6894 68.3013 17.6924 68.3236 18.8015C65.2633 17.9885 62.2252 17.5387 59.1341 17.5806C56.5652 17.6142 54.0214 17.9075 51.5278 18.5724C50.4361 18.8629 50.4333 18.8545 50.5729 17.6812V17.6784ZM33.6459 67.6937C34.6902 63.4277 34.8466 59.0947 34.5952 54.7338C34.3691 50.7751 34.02 46.8165 33.9335 42.8551C33.8218 37.765 34.7795 32.9487 38.3928 29.0263C40.6322 26.5958 43.204 24.5648 46.2141 23.2183C57.1376 18.3349 67.5585 19.1451 77.3847 26.16C78.1805 26.7271 78.161 27.0596 77.4741 27.7468C62.443 42.7405 47.4371 57.7565 32.4284 72.7726C32.1883 73.0128 32.0012 73.3062 31.789 73.5744C32.434 71.5713 33.1628 69.6744 33.6459 67.6937ZM94.3955 86.1487C97.7574 88.9033 97.8272 91.8702 94.5491 94.7225C91.8461 97.0748 88.5847 98.3795 85.2367 99.4634C78.0632 101.788 69.0217 103.006 58.4528 103C50.6706 102.9 42.0312 102.157 33.657 99.4885C30.5017 98.4828 27.4581 97.234 24.7998 95.1947C24.6351 95.0689 24.4703 94.9376 24.3139 94.8008C20.857 91.8003 21.0693 88.5094 24.8082 85.8414C28.6867 83.0701 33.0986 81.6118 37.6445 80.4692C39.0518 80.1144 40.5038 79.9328 41.9055 79.5668C42.5813 79.3908 42.7097 79.6227 42.8354 80.1898C44.0416 85.6766 47.2053 89.6688 52.2399 92.0937C61.8678 96.7284 73.5341 91.0405 75.8601 80.5977C76.0611 79.6897 76.2789 79.3852 77.2786 79.6003C83.1564 80.8603 88.97 82.2543 93.9683 85.8554C94.1079 85.956 94.2587 86.0426 94.3927 86.1515L94.3955 86.1487ZM45.7952 78.969C51.5614 78.1895 57.3554 78.0247 63.1634 78.1616C66.4947 78.2398 69.8092 78.6002 73.118 78.9801C73.9055 79.0723 73.5536 79.5556 73.481 79.8769C72.6713 83.4472 70.7697 86.3163 67.8098 88.4619C65.3163 90.2722 62.5156 91.1801 59.4273 91.1773C52.6308 91.1829 46.5631 86.2549 45.2786 79.7205C45.1753 79.1897 45.1893 79.05 45.7952 78.9662V78.969ZM84.6391 38.6617C85.192 43.3328 84.5945 47.9759 84.3124 52.6274C83.955 58.522 83.9243 64.3804 85.8705 70.0711C86.8451 72.9234 88.2468 75.5383 89.9976 77.98C90.7599 79.0472 91.4887 80.1395 92.184 81.6258C81.7938 76.8569 70.9959 75.5523 60.0221 75.488C49.0148 75.421 38.1806 76.653 27.8881 81.0391C45.3205 63.6037 62.7418 46.1767 80.1798 28.7358C82.8213 31.4876 84.1868 34.8679 84.6363 38.659L84.6391 38.6617Z" fill="#D0CFD3"/>
<path d="M38 73.5701C51.0131 60.7125 64.0206 47.8632 77.0393 35C79.0122 37.0274 80.0309 39.5207 80.3676 42.3191C80.7802 45.7637 80.334 49.1889 80.1235 52.6168C79.8569 56.9628 79.8344 61.2838 81.2881 65.48C82.015 67.5823 83.0617 69.5126 84.3695 71.3126C84.9392 72.1002 85.4836 72.9073 86 74C78.2432 70.4833 70.1833 69.5209 61.9888 69.4738C53.7718 69.4266 45.6838 70.3335 38 73.5673V73.5701Z" fill="#D33930" fill-opacity="0.5"/>
<path d="M36 67C36.5156 65.3875 37.1002 63.8636 37.4862 62.2677C38.3217 58.8349 38.4458 55.3522 38.2472 51.8446C38.0652 48.6584 37.7868 45.4777 37.7178 42.2887C37.6296 38.1937 38.3961 34.3203 41.2886 31.1673C43.0836 29.2112 45.1406 27.5793 47.5533 26.496C56.3023 22.5672 64.6488 23.2183 72.5182 28.8621C73.1552 29.3193 73.1414 29.5853 72.5899 30.1366C60.5514 42.1972 48.5321 54.2745 36.5129 66.3544C36.3199 66.5484 36.171 66.7839 36 66.9972V67Z" fill="#D33930" fill-opacity="0.4"/>
<path d="M59.5005 88C54.9528 88.0051 50.8909 84.9837 50.033 80.9806C49.9635 80.655 49.9719 80.5686 50.38 80.5202C54.2392 80.0421 58.1151 79.9429 62.0021 80.0268C64.2315 80.0752 66.4471 80.2939 68.6627 80.5279C69.1902 80.5838 68.9542 80.8814 68.9042 81.0772C68.3628 83.2644 67.0912 85.0218 65.1089 86.3367C63.4402 87.4456 61.5662 88.0025 59.5005 88Z" fill="#D33930"/>
<path d="M65.997 17.9972C63.763 17.4426 61.5469 17.1361 59.292 17.164C57.4155 17.1863 55.5598 17.3869 53.7428 17.8412C52.9475 18.039 52.9445 18.0334 53.0458 17.2336C53.3794 14.5918 55.804 12.3986 58.7857 12.0446C61.6303 11.7046 64.4988 13.3377 65.5502 15.8932C65.8243 16.5564 65.9851 17.2448 66 18L65.997 17.9972Z" fill="#D33930"/>
</svg>
