<svg width="22" height="24" viewBox="0 0 22 24" fill="none" xmlns="http://www.w3.org/2000/svg">
<path d="M21.8946 16.1979L19.394 6.83049C18.86 4.82667 17.6966 3.06606 16.0887 1.82887C14.4809 0.591687 12.5211 -0.0509783 10.5213 0.00316084C8.52151 0.0573 6.59658 0.805132 5.0529 2.12764C3.50922 3.45014 2.4355 5.27132 2.00262 7.30131L0.0685375 16.3479C-0.0250481 16.7862 -0.0227653 17.2407 0.0752172 17.6779C0.1732 18.1152 0.364382 18.524 0.634658 18.8741C0.904935 19.2243 1.24741 19.507 1.63681 19.7012C2.02622 19.8955 2.45262 19.9964 2.88455 19.9965H6.35359C6.57433 21.1264 7.16409 22.1422 8.02295 22.8718C8.8818 23.6014 9.95694 24 11.0662 24C12.1754 24 13.2506 23.6014 14.1094 22.8718C14.9683 22.1422 15.558 21.1264 15.7788 19.9965H19.1161C19.5605 19.9963 19.9989 19.8894 20.397 19.6841C20.7951 19.4788 21.1423 19.1807 21.4113 18.813C21.6803 18.4453 21.864 18.018 21.948 17.5644C22.032 17.1108 22.014 16.6431 21.8955 16.1979H21.8946ZM11.0662 21.9957C10.4716 21.9932 9.89224 21.7997 9.40745 21.4419C8.92266 21.084 8.55609 20.5792 8.35789 19.9965H13.7745C13.5763 20.5792 13.2097 21.084 12.7249 21.4419C12.2401 21.7997 11.6608 21.9932 11.0662 21.9957V21.9957ZM19.8806 17.6024C19.7909 17.726 19.6746 17.8261 19.541 17.8947C19.4074 17.9633 19.2602 17.9984 19.1112 17.9973H2.88455C2.74054 17.9972 2.59837 17.9636 2.46854 17.8988C2.33871 17.8341 2.22453 17.7398 2.13443 17.623C2.04434 17.5063 1.98062 17.37 1.94798 17.2242C1.91535 17.0784 1.91463 16.9268 1.94588 16.7807L3.87996 7.73415C4.22076 6.14096 5.06418 4.7119 6.27613 3.67414C7.48808 2.63637 8.99901 2.04947 10.5687 2.00673C12.1385 1.96399 13.6769 2.46786 14.9395 3.43824C16.202 4.40863 17.1163 5.78983 17.5369 7.36229L20.0374 16.7297C20.0782 16.8779 20.0853 17.0338 20.0581 17.1853C20.0309 17.3368 19.9702 17.4796 19.8806 17.6024V17.6024Z" fill="white"/>
</svg>
