<svg width="22" height="25" viewBox="0 0 22 25" fill="none" xmlns="http://www.w3.org/2000/svg">
<path d="M3.04694 18.7461H18.9522C19.4417 18.7461 19.924 18.6252 20.3583 18.3937C20.7926 18.1622 21.1661 17.8269 21.4472 17.4161C21.7284 17.0053 21.9088 16.5312 21.9734 16.0337C22.0379 15.5363 21.9847 15.0303 21.8181 14.5584L18.9207 6.34659C18.4258 4.52167 17.3615 2.91313 15.8905 1.76699C14.4195 0.62086 12.6227 0.000220869 10.775 1.05948e-09V1.05948e-09C8.85162 -3.08189e-05 6.98571 0.672347 5.48536 1.90612C3.98502 3.13989 2.93996 4.86128 2.52273 6.78608L0.13532 14.7011C-0.00524238 15.1684 -0.0368422 15.663 0.0430633 16.1451C0.122969 16.6272 0.312149 17.0833 0.595381 17.4768C0.878613 17.8703 1.24799 18.1901 1.67379 18.4106C2.09959 18.631 2.56992 18.746 3.04694 18.7461Z" fill="white"/>
<path d="M6.1272 20.829C6.36037 22.0061 6.98334 23.0644 7.89057 23.8246C8.7978 24.5847 9.93348 25 11.1052 25C12.2769 25 13.4126 24.5847 14.3198 23.8246C15.2271 23.0644 15.85 22.0061 16.0832 20.829H6.1272Z" fill="white"/>
</svg>
