<svg width="49" height="49" viewBox="0 0 49 49" fill="none" xmlns="http://www.w3.org/2000/svg">
<g filter="url(#filter0_d_139_83)">
<g filter="url(#filter1_b_139_83)">
<rect x="9" y="7" width="31" height="31" rx="15.5" fill="#FFFBFB"/>
</g>
<g clip-path="url(#clip0_139_83)">
<path d="M24.4999 30.9996C22.8803 30.9996 21.5672 29.7222 21.5672 28.1464C21.5672 26.5706 22.8803 25.2932 24.4999 25.2932C26.1196 25.2932 27.4326 26.5706 27.4326 28.1464C27.4326 29.7222 26.1196 30.9996 24.4999 30.9996Z" fill="#FE9F00"/>
<path d="M21.4045 28.1457C20.4057 28.143 19.4071 28.1406 18.4085 28.1386H18.3973C18.2826 28.1392 18.1682 28.1287 18.0558 28.1071H18.0466C18.0213 28.1019 17.996 28.0961 17.971 28.0896L17.9538 28.0848C17.9292 28.0783 17.9049 28.0711 17.8806 28.0629L17.8747 28.0609C17.7767 28.0278 17.6833 27.9831 17.5965 27.9278C17.4139 27.8151 17.2634 27.6594 17.1589 27.4751C17.0544 27.2909 16.9993 27.084 16.9986 26.8736C16.9967 26.6898 17.036 26.5079 17.1138 26.3404C17.1916 26.1729 17.3061 26.024 17.4491 25.904C17.4551 25.8985 17.4607 25.8927 17.4667 25.8875C18.5569 24.9401 19.1615 23.772 19.2353 22.3494C19.2359 22.3286 19.2399 22.3081 19.2469 22.2885C19.249 22.2272 19.2504 22.166 19.2501 22.1044C19.2501 21.4545 19.2501 20.8044 19.2501 20.1541C19.2561 17.6653 20.9786 15.6035 23.4833 15.0988C23.8073 15.0337 24.1372 15.0009 24.468 15.001H24.5313C24.8621 15.0009 25.1921 15.0337 25.516 15.0988C28.0211 15.6045 29.7436 17.665 29.7492 20.1541C29.7509 20.8037 29.7509 21.4538 29.7492 22.1044C29.7492 22.166 29.7492 22.2272 29.7528 22.2885C29.7597 22.3081 29.7635 22.3286 29.764 22.3494C29.8382 23.772 30.4428 24.9401 31.5326 25.8875C31.539 25.8927 31.5446 25.8985 31.5506 25.904C31.6929 26.0241 31.8067 26.1729 31.8841 26.34C31.9615 26.5071 32.0007 26.6886 31.999 26.8719C31.9983 27.0823 31.9432 27.2892 31.8387 27.4734C31.7342 27.6577 31.5837 27.8133 31.4011 27.9261C31.3142 27.9813 31.2207 28.026 31.1226 28.0592L31.1169 28.0612C31.0927 28.0694 31.0681 28.0766 31.0434 28.0831L31.0262 28.0879C31.0012 28.0944 30.9763 28.1002 30.9506 28.1054H30.9418C30.8294 28.127 30.7149 28.1375 30.6003 28.1368H30.5891C29.5903 28.1368 27.4355 28.1474 27.349 28.144H21.402L21.4045 28.1457Z" fill="#FEC007"/>
</g>
</g>
<defs>
<filter id="filter0_d_139_83" x="0" y="0" width="49" height="49" filterUnits="userSpaceOnUse" color-interpolation-filters="sRGB">
<feFlood flood-opacity="0" result="BackgroundImageFix"/>
<feColorMatrix in="SourceAlpha" type="matrix" values="0 0 0 0 0 0 0 0 0 0 0 0 0 0 0 0 0 0 127 0" result="hardAlpha"/>
<feOffset dy="2"/>
<feGaussianBlur stdDeviation="4.5"/>
<feComposite in2="hardAlpha" operator="out"/>
<feColorMatrix type="matrix" values="0 0 0 0 0 0 0 0 0 0 0 0 0 0 0 0 0 0 0.05 0"/>
<feBlend mode="normal" in2="BackgroundImageFix" result="effect1_dropShadow_139_83"/>
<feBlend mode="normal" in="SourceGraphic" in2="effect1_dropShadow_139_83" result="shape"/>
</filter>
<filter id="filter1_b_139_83" x="5" y="3" width="39" height="39" filterUnits="userSpaceOnUse" color-interpolation-filters="sRGB">
<feFlood flood-opacity="0" result="BackgroundImageFix"/>
<feGaussianBlur in="BackgroundImage" stdDeviation="2"/>
<feComposite in2="SourceAlpha" operator="in" result="effect1_backgroundBlur_139_83"/>
<feBlend mode="normal" in="SourceGraphic" in2="effect1_backgroundBlur_139_83" result="shape"/>
</filter>
<clipPath id="clip0_139_83">
<rect width="15" height="16" fill="white" transform="matrix(-1 0 0 1 32 15)"/>
</clipPath>
</defs>
</svg>
