<svg width="16" height="20" viewBox="0 0 16 20" fill="none" xmlns="http://www.w3.org/2000/svg">
<path d="M6.73682 10.0007C6.96016 10.0007 7.17435 10.0885 7.33228 10.2448C7.4902 10.4011 7.57892 10.613 7.57892 10.8341C7.57892 11.0551 7.4902 11.2671 7.33228 11.4234C7.17435 11.5797 6.96016 11.6675 6.73682 11.6675H4.21051C3.98717 11.6675 3.77298 11.5797 3.61506 11.4234C3.45713 11.2671 3.36841 11.0551 3.36841 10.8341C3.36841 10.613 3.45713 10.4011 3.61506 10.2448C3.77298 10.0885 3.98717 10.0007 4.21051 10.0007H6.73682ZM11.7894 7.50051C11.7894 7.27949 11.7007 7.06751 11.5428 6.91122C11.3849 6.75493 11.1707 6.66712 10.9473 6.66712H4.21051C3.98717 6.66712 3.77298 6.75493 3.61506 6.91122C3.45713 7.06751 3.36841 7.27949 3.36841 7.50051C3.36841 7.72154 3.45713 7.93352 3.61506 8.08981C3.77298 8.2461 3.98717 8.33391 4.21051 8.33391H10.9473C11.1707 8.33391 11.3849 8.2461 11.5428 8.08981C11.7007 7.93352 11.7894 7.72154 11.7894 7.50051ZM4.21051 5.00034H10.9473C11.1707 5.00034 11.3849 4.91254 11.5428 4.75625C11.7007 4.59996 11.7894 4.38798 11.7894 4.16695C11.7894 3.94592 11.7007 3.73395 11.5428 3.57766C11.3849 3.42137 11.1707 3.33356 10.9473 3.33356H4.21051C3.98717 3.33356 3.77298 3.42137 3.61506 3.57766C3.45713 3.73395 3.36841 3.94592 3.36841 4.16695C3.36841 4.38798 3.45713 4.59996 3.61506 4.75625C3.77298 4.91254 3.98717 5.00034 4.21051 5.00034ZM14.3157 16.2044V19.3988C14.3158 19.5177 14.2802 19.6339 14.2135 19.7328C14.1468 19.8317 14.052 19.9087 13.941 19.9542C13.83 19.9997 13.7079 20.0116 13.5901 19.9884C13.4722 19.9652 13.364 19.908 13.2791 19.8239L12.6315 19.1838L11.984 19.8239C11.899 19.908 11.7908 19.9652 11.673 19.9884C11.5552 20.0116 11.4331 19.9997 11.3221 19.9542C11.2111 19.9087 11.1163 19.8317 11.0496 19.7328C10.9829 19.6339 10.9473 19.5177 10.9473 19.3988V16.2044C10.3051 15.8393 9.80292 15.2742 9.51898 14.5971C9.23504 13.9201 9.18529 13.1692 9.37748 12.4612C9.56967 11.7533 9.993 11.1282 10.5816 10.6831C11.1701 10.2381 11.8909 9.99816 12.6315 10.0007C12.9162 10.0042 13.1992 10.044 13.4736 10.119V4.16695C13.4736 3.50387 13.2075 2.86794 12.7337 2.39906C12.2599 1.93019 11.6174 1.66678 10.9473 1.66678H4.21051C3.54049 1.66678 2.89792 1.93019 2.42414 2.39906C1.95037 2.86794 1.68421 3.50387 1.68421 4.16695V14.1676C1.68421 14.8307 1.95037 15.4667 2.42414 15.9355C2.89792 16.4044 3.54049 16.6678 4.21051 16.6678H8.42103C8.64437 16.6678 8.85856 16.7556 9.01648 16.9119C9.17441 17.0682 9.26313 17.2802 9.26313 17.5012C9.26313 17.7222 9.17441 17.9342 9.01648 18.0905C8.85856 18.2468 8.64437 18.3346 8.42103 18.3346H4.21051C3.09423 18.3333 2.02404 17.8938 1.23471 17.1127C0.445373 16.3315 0.00133714 15.2724 0 14.1676V4.16695C0.00133714 3.06221 0.445373 2.0031 1.23471 1.22193C2.02404 0.440765 3.09423 0.00132331 4.21051 0L10.9473 0C12.0636 0.00132331 13.1338 0.440765 13.9231 1.22193C14.7125 2.0031 15.1565 3.06221 15.1578 4.16695V11.1524C15.4877 11.519 15.7306 11.954 15.8686 12.4255C16.0066 12.897 16.0364 13.3931 15.9556 13.8774C15.8749 14.3618 15.6857 14.8221 15.402 15.2247C15.1183 15.6274 14.7471 15.9621 14.3157 16.2044ZM14.3157 13.3342C14.3157 13.0046 14.217 12.6823 14.0319 12.4082C13.8468 12.1341 13.5838 11.9205 13.2761 11.7943C12.9683 11.6682 12.6297 11.6352 12.303 11.6995C11.9763 11.7638 11.6762 11.9226 11.4406 12.1557C11.2051 12.3888 11.0447 12.6858 10.9797 13.0091C10.9147 13.3324 10.9481 13.6675 11.0755 13.9721C11.203 14.2767 11.4189 14.537 11.6958 14.7201C11.9728 14.9033 12.2984 15.001 12.6315 15.001C13.0782 15.001 13.5066 14.8254 13.8225 14.5128C14.1383 14.2003 14.3157 13.7763 14.3157 13.3342Z" fill="#D53B32"/>
</svg>
