<svg width="17" height="13" viewBox="0 0 17 13" fill="none" xmlns="http://www.w3.org/2000/svg">
<path d="M8.53079 6.67271C8.07396 6.67271 7.62739 6.53725 7.24755 6.28344C6.8677 6.02964 6.57165 5.6689 6.39683 5.24684C6.22201 4.82479 6.17627 4.36037 6.26539 3.91231C6.35451 3.46426 6.5745 3.05269 6.89753 2.72966C7.22056 2.40663 7.63212 2.18665 8.08018 2.09753C8.52823 2.0084 8.99265 2.05414 9.41471 2.22897C9.83677 2.40379 10.1975 2.69984 10.4513 3.07968C10.7051 3.45952 10.8406 3.9061 10.8406 4.36293C10.8399 4.97531 10.5963 5.56242 10.1633 5.99544C9.73029 6.42846 9.14318 6.67203 8.53079 6.67271ZM8.53079 3.07971C8.277 3.07971 8.0289 3.15497 7.81788 3.29597C7.60686 3.43698 7.44238 3.63739 7.34526 3.87186C7.24814 4.10634 7.22272 4.36435 7.27224 4.61327C7.32175 4.86219 7.44396 5.09084 7.62343 5.2703C7.80289 5.44976 8.03153 5.57197 8.28045 5.62149C8.52937 5.671 8.78738 5.64559 9.02186 5.54846C9.25634 5.45134 9.45675 5.28687 9.59775 5.07584C9.73875 4.86482 9.81401 4.61672 9.81401 4.36293C9.81401 4.0226 9.67881 3.69621 9.43816 3.45556C9.19751 3.21491 8.87112 3.07971 8.53079 3.07971ZM12.3804 11.8056V11.5489C12.3804 10.5279 11.9749 9.54877 11.2529 8.82682C10.531 8.10487 9.55178 7.69928 8.53079 7.69928C7.50981 7.69928 6.53063 8.10487 5.80869 8.82682C5.08674 9.54877 4.68115 10.5279 4.68115 11.5489L4.68115 11.8056C4.68115 11.9417 4.73523 12.0723 4.83149 12.1685C4.92775 12.2648 5.05831 12.3189 5.19444 12.3189C5.33057 12.3189 5.46113 12.2648 5.55739 12.1685C5.65365 12.0723 5.70772 11.9417 5.70772 11.8056V11.5489C5.70772 10.8002 6.00515 10.0821 6.53458 9.55271C7.06401 9.02328 7.78207 8.72585 8.53079 8.72585C9.27952 8.72585 9.99758 9.02328 10.527 9.55271C11.0564 10.0821 11.3539 10.8002 11.3539 11.5489V11.8056C11.3539 11.9417 11.4079 12.0723 11.5042 12.1685C11.6005 12.2648 11.731 12.3189 11.8672 12.3189C12.0033 12.3189 12.1338 12.2648 12.2301 12.1685C12.3264 12.0723 12.3804 11.9417 12.3804 11.8056ZM17 9.23914C17 8.54553 16.7992 7.86675 16.4219 7.28474C16.0446 6.70273 15.5069 6.24237 14.8737 5.95923C14.2405 5.67609 13.5389 5.58228 12.8536 5.68912C12.1682 5.79596 11.5285 6.09889 11.0115 6.56133C10.9606 6.60609 10.919 6.66049 10.8892 6.72141C10.8594 6.78232 10.842 6.84853 10.838 6.91622C10.8339 6.9839 10.8433 7.05172 10.8656 7.11575C10.8879 7.17978 10.9227 7.23876 10.9679 7.28928C11.0131 7.3398 11.0679 7.38085 11.1291 7.41008C11.1903 7.4393 11.2567 7.45611 11.3244 7.45953C11.3921 7.46296 11.4598 7.45293 11.5237 7.43004C11.5875 7.40714 11.6461 7.37182 11.6962 7.32613C12.0655 6.99589 12.5225 6.77959 13.012 6.70334C13.5015 6.62708 14.0026 6.69414 14.4548 6.8964C14.9071 7.09867 15.2911 7.4275 15.5606 7.84321C15.83 8.25892 15.9734 8.74373 15.9734 9.23914C15.9734 9.37527 16.0275 9.50583 16.1238 9.60209C16.22 9.69835 16.3506 9.75243 16.4867 9.75243C16.6229 9.75243 16.7534 9.69835 16.8497 9.60209C16.9459 9.50583 17 9.37527 17 9.23914ZM13.6637 4.61957C13.2068 4.61957 12.7602 4.4841 12.3804 4.2303C12.0006 3.9765 11.7045 3.61576 11.5297 3.1937C11.3549 2.77164 11.3091 2.30722 11.3982 1.85917C11.4874 1.41111 11.7074 0.999551 12.0304 0.676521C12.3534 0.353492 12.765 0.133506 13.213 0.0443829C13.6611 -0.0447407 14.1255 0.0010008 14.5476 0.175823C14.9696 0.350645 15.3304 0.646696 15.5842 1.02654C15.838 1.40638 15.9734 1.85295 15.9734 2.30979C15.9728 2.92217 15.7292 3.50928 15.2962 3.9423C14.8631 4.37532 14.276 4.61889 13.6637 4.61957ZM13.6637 1.02657C13.4099 1.02657 13.1618 1.10183 12.9507 1.24283C12.7397 1.38383 12.5752 1.58424 12.4781 1.81872C12.381 2.0532 12.3556 2.31121 12.4051 2.56013C12.4546 2.80905 12.5768 3.03769 12.7563 3.21715C12.9357 3.39662 13.1644 3.51883 13.4133 3.56834C13.6622 3.61786 13.9202 3.59244 14.1547 3.49532C14.3892 3.3982 14.5896 3.23372 14.7306 3.0227C14.8716 2.81168 14.9469 2.56358 14.9469 2.30979C14.9469 1.96946 14.8117 1.64307 14.571 1.40242C14.3304 1.16177 14.004 1.02657 13.6637 1.02657Z" fill="#D53B32"/>
<path d="M0.000112534 9.23914C0.000131607 8.54553 0.200914 7.86675 0.578222 7.28474C0.955531 6.70273 1.49324 6.24237 2.12643 5.95923C2.75962 5.67609 3.46123 5.58228 4.14656 5.68912C4.8319 5.79596 5.47166 6.09889 5.98862 6.56133C6.03955 6.60609 6.08111 6.66049 6.1109 6.72141C6.14069 6.78232 6.15811 6.84853 6.16217 6.91622C6.16622 6.9839 6.15682 7.05172 6.13452 7.11575C6.11221 7.17978 6.07744 7.23876 6.03221 7.28928C5.98699 7.3398 5.9322 7.38085 5.87101 7.41008C5.80982 7.4393 5.74345 7.45611 5.67573 7.45953C5.60802 7.46296 5.54029 7.45293 5.47646 7.43004C5.41264 7.40714 5.35399 7.37182 5.30389 7.32613C4.93461 6.99589 4.47764 6.77959 3.98813 6.70334C3.49863 6.62708 2.99752 6.69414 2.54529 6.8964C2.09305 7.09867 1.70902 7.4275 1.43955 7.84321C1.17008 8.25892 1.02669 8.74373 1.02668 9.23914C1.02668 9.37527 0.972606 9.50583 0.876346 9.60209C0.780086 9.69835 0.649529 9.75243 0.513398 9.75243C0.377266 9.75243 0.246709 9.69835 0.15045 9.60209C0.0541897 9.50583 0.000112534 9.37527 0.000112534 9.23914ZM3.33647 4.61957C3.7933 4.61957 4.23987 4.4841 4.61972 4.2303C4.99956 3.9765 5.29561 3.61576 5.47043 3.1937C5.64525 2.77164 5.691 2.30722 5.60187 1.85917C5.51275 1.41111 5.29276 0.999551 4.96973 0.676521C4.6467 0.353492 4.23514 0.133506 3.78709 0.0443829C3.33903 -0.0447407 2.87461 0.0010008 2.45255 0.175823C2.03049 0.350645 1.66976 0.646696 1.41595 1.02654C1.16215 1.40638 1.02668 1.85295 1.02668 2.30979C1.02736 2.92217 1.27093 3.50928 1.70395 3.9423C2.13698 4.37532 2.72408 4.61889 3.33647 4.61957ZM3.33647 1.02657C3.59026 1.02657 3.83836 1.10183 4.04938 1.24283C4.26041 1.38383 4.42488 1.58424 4.522 1.81872C4.61913 2.0532 4.64454 2.31121 4.59503 2.56013C4.54551 2.80905 4.4233 3.03769 4.24384 3.21716C4.06438 3.39662 3.83573 3.51883 3.58681 3.56834C3.33789 3.61786 3.07988 3.59244 2.8454 3.49532C2.61093 3.3982 2.41052 3.23372 2.26952 3.0227C2.12851 2.81168 2.05325 2.56358 2.05325 2.30979C2.05325 1.96946 2.18845 1.64307 2.4291 1.40242C2.66975 1.16177 2.99614 1.02657 3.33647 1.02657Z" fill="#D53B32"/>
</svg>
