<svg width="16" height="10" viewBox="0 0 16 10" fill="none" xmlns="http://www.w3.org/2000/svg">
<path fill-rule="evenodd" clip-rule="evenodd" d="M7.99996 2.5C6.61925 2.5 5.49996 3.61929 5.49996 5C5.49996 6.38071 6.61925 7.5 7.99996 7.5C9.38067 7.5 10.5 6.38071 10.5 5C10.5 3.61929 9.38067 2.5 7.99996 2.5ZM6.74996 5C6.74996 4.30964 7.3096 3.75 7.99996 3.75C8.69032 3.75 9.24996 4.30964 9.24996 5C9.24996 5.69036 8.69032 6.25 7.99996 6.25C7.3096 6.25 6.74996 5.69036 6.74996 5Z" fill="#7A7A7A"/>
<path fill-rule="evenodd" clip-rule="evenodd" d="M7.99996 0C4.15442 0 1.69979 2.39979 0.629275 3.73583C0.0311271 4.48234 0.0311271 5.51766 0.629275 6.26417C1.69979 7.60021 4.15442 10 7.99996 10C11.8455 10 14.3001 7.60021 15.3706 6.26417C15.9688 5.51766 15.9688 4.48234 15.3706 3.73583C14.3001 2.39979 11.8455 0 7.99996 0ZM1.60476 4.51745C2.57986 3.30049 4.71385 1.25 7.99996 1.25C11.2861 1.25 13.4201 3.30049 14.3952 4.51745C14.6273 4.80716 14.6273 5.19284 14.3952 5.48255C13.4201 6.69951 11.2861 8.75 7.99996 8.75C4.71385 8.75 2.57986 6.69951 1.60476 5.48255C1.37263 5.19284 1.37263 4.80716 1.60476 4.51745Z" fill="#7A7A7A"/>
</svg>
