<svg width="16" height="13" viewBox="0 0 16 13" fill="none" xmlns="http://www.w3.org/2000/svg">
<path fill-rule="evenodd" clip-rule="evenodd" d="M13.3326 0.707107L12.6255 0L0.819296 11.8062L1.5264 12.5133L13.3326 0.707107ZM7.8193 1C9.0244 1 10.0929 1.23567 11.025 1.60042L10.0436 2.5819C9.37251 2.37513 8.63105 2.25 7.8193 2.25C4.53319 2.25 2.39919 4.30049 1.4241 5.51745C1.19197 5.80716 1.19197 6.19284 1.4241 6.48255C1.93948 7.12577 2.77862 8.00185 3.94051 8.68494L3.03137 9.59409C1.83548 8.83467 0.974825 7.9209 0.448611 7.26417C-0.149537 6.51766 -0.149537 5.48234 0.448611 4.73583C1.51912 3.39979 3.97375 1 7.8193 1ZM7.8193 3.5C8.20116 3.5 8.56303 3.58562 8.88676 3.7387L7.87427 4.75119C7.85604 4.7504 7.83772 4.75 7.8193 4.75C7.12894 4.75 6.5693 5.30964 6.5693 6C6.5693 6.01842 6.56969 6.03675 6.57048 6.05498L5.558 7.06746C5.40491 6.74374 5.3193 6.38187 5.3193 6C5.3193 4.61929 6.43858 3.5 7.8193 3.5ZM10.1398 5.06792L9.06075 6.14692C8.99367 6.71985 8.53915 7.17438 7.96622 7.24146L6.88721 8.32046C7.17525 8.43627 7.48983 8.5 7.8193 8.5C9.20001 8.5 10.3193 7.38071 10.3193 6C10.3193 5.67054 10.2556 5.35596 10.1398 5.06792ZM7.8193 9.75C7.06757 9.75 6.37613 9.6427 5.74506 9.46261L4.75437 10.4533C5.65285 10.7873 6.67444 11 7.8193 11C11.6648 11 14.1195 8.60021 15.19 7.26417C15.7881 6.51766 15.7881 5.48234 15.19 4.73583C14.6813 4.10095 13.86 3.22585 12.7255 2.4822L11.8197 3.38797C12.9187 4.0596 13.7173 4.89689 14.2145 5.51745C14.4466 5.80716 14.4466 6.19284 14.2145 6.48255C13.2394 7.69951 11.1054 9.75 7.8193 9.75Z" fill="#7A7A7A"/>
</svg>
