<svg width="16" height="16" viewBox="0 0 16 16" fill="none" xmlns="http://www.w3.org/2000/svg">
<path d="M15.3957 11.1787C15.7827 11.5667 16 12.0924 16 12.6404C16 13.1885 15.7827 13.7141 15.3957 14.1022L14.7867 14.8034C9.31707 20.0374 -3.99012 6.73393 1.16435 1.24747L1.93227 0.57969C2.32067 0.203427 2.84158 -0.00479018 3.38232 8.36741e-05C3.92306 0.00495753 4.44013 0.222531 4.82168 0.605733C4.84238 0.625767 6.07908 2.23378 6.07908 2.23378C6.44496 2.62011 6.64854 3.13219 6.6478 3.66429C6.64705 4.19639 6.44204 4.70789 6.07508 5.0932L5.30181 6.06549C5.72984 7.10524 6.35905 8.05018 7.1533 8.84606C7.94756 9.64194 8.89121 10.2731 9.93007 10.7032L10.9083 9.92525C11.2929 9.5573 11.8044 9.3516 12.3366 9.35086C12.8688 9.35011 13.3808 9.55438 13.7664 9.92124C13.7664 9.92124 15.375 11.1586 15.3957 11.1787ZM14.4775 12.1496C14.4775 12.1496 12.8796 10.9196 12.8589 10.8995C12.7213 10.7631 12.5354 10.6866 12.3417 10.6866C12.148 10.6866 11.9621 10.7631 11.8245 10.8995C11.8065 10.9169 10.4596 11.9907 10.4596 11.9907C10.3688 12.0629 10.2608 12.1103 10.1462 12.1281C10.0316 12.1459 9.91427 12.1335 9.80587 12.0922C8.45927 11.5912 7.23613 10.8065 6.21937 9.79131C5.20261 8.77614 4.416 7.55422 3.91286 6.20839C3.86825 6.09851 3.85371 5.97874 3.87072 5.86137C3.88774 5.74401 3.93571 5.6333 4.00968 5.54061C4.00968 5.54061 5.08345 4.19571 5.10148 4.17835C5.23788 4.04077 5.31441 3.85489 5.31441 3.66115C5.31441 3.46742 5.23788 3.28153 5.10148 3.14396C5.08144 3.12392 3.85142 1.5246 3.85142 1.5246C3.7118 1.39939 3.52956 1.33234 3.34209 1.33718C3.15461 1.34202 2.97608 1.41839 2.8431 1.55064L2.07517 2.21842C-1.69234 6.74796 9.84126 17.6421 13.8098 13.8932L14.4188 13.1913C14.5624 13.0596 14.6488 12.877 14.6598 12.6824C14.6708 12.4879 14.6054 12.2967 14.4775 12.1496Z" fill="#D53B32"/>
</svg>
