<svg width="16" height="19" viewBox="0 0 16 19" fill="none" xmlns="http://www.w3.org/2000/svg">
<g clip-path="url(#clip0_594_1659)">
<path d="M15.9675 4.55281C15.9387 3.56756 15.1462 2.67275 14.1804 2.56479C13.8425 2.52686 13.5027 2.50741 13.1668 2.45586C12.2575 2.31775 11.3893 2.05806 10.5767 1.6126C9.94592 1.26733 9.38597 0.825761 8.86432 0.330701C8.42115 -0.0904407 7.66978 -0.107948 7.21991 0.262618C7.09739 0.36377 6.97679 0.467839 6.86001 0.575799C6.00909 1.36362 5.02704 1.90536 3.9196 2.22438C3.23139 2.42279 2.525 2.49185 1.81766 2.56576C0.895907 2.664 0.0947582 3.50531 0.0421141 4.44485C0.0239279 4.77068 0.00957039 5.09845 0.00765606 5.42427C0.000955892 6.51652 -0.0220161 7.60876 0.0670004 8.70003C0.125388 9.4081 0.196218 10.1142 0.32735 10.8106C0.545584 11.97 0.90835 13.0787 1.47404 14.1155C2.04068 15.1543 2.77004 16.053 3.66499 16.8136C4.44891 17.4798 5.31706 18.0118 6.24647 18.4359C6.75281 18.6664 7.25149 18.9329 7.81718 18.999H8.18186C8.5073 18.9737 8.80115 18.8405 9.09978 18.7238C9.2022 18.6839 9.30079 18.6362 9.40129 18.5925C10.904 17.9369 12.2565 17.0616 13.3486 15.804C14.2723 14.7409 14.9194 13.5213 15.3348 12.1723C15.6066 11.2911 15.7655 10.3865 15.8622 9.46937C15.9407 8.72629 15.9895 7.98225 15.9962 7.23625C16.0038 6.34145 15.9923 5.44664 15.9665 4.55184L15.9675 4.55281ZM8.00574 14.242C5.46159 14.2595 3.33668 12.1013 3.34625 9.50925C3.35583 6.90654 5.42618 4.8018 7.99425 4.78332C10.5365 4.76484 12.6643 6.92599 12.6537 9.51606C12.6432 12.1197 10.5738 14.2245 8.00574 14.242Z" fill="#D33930"/>
<path d="M8.00283 5.89892C6.05021 5.89503 4.44791 7.52027 4.44313 9.51023C4.43834 11.4924 6.03968 13.1215 7.99804 13.1274C9.94875 13.1332 11.551 11.506 11.5558 9.51412C11.5606 7.52902 9.96215 5.90281 8.00187 5.89795L8.00283 5.89892ZM10.1029 8.8401C9.2615 9.69697 8.42111 10.5548 7.57593 11.4068C7.33281 11.6519 7.02556 11.65 6.78053 11.4097C6.45796 11.0917 6.14018 10.7678 5.82623 10.441C5.6013 10.2056 5.60321 9.8594 5.81762 9.64348C6.03777 9.4227 6.36033 9.42756 6.60154 9.66001C6.76043 9.81271 6.9174 9.96833 7.06385 10.1327C7.14999 10.23 7.19977 10.2232 7.28878 10.1317C7.95114 9.4509 8.61924 8.77688 9.28447 8.09897C9.45485 7.92487 9.64628 7.8315 9.89036 7.9132C10.1249 7.99101 10.2684 8.19331 10.2675 8.46175C10.2713 8.60084 10.2101 8.73214 10.1029 8.84107V8.8401Z" fill="#D33930"/>
</g>
<defs>
<clipPath id="clip0_594_1659">
<rect width="16" height="19" fill="white"/>
</clipPath>
</defs>
</svg>
