<svg width="17" height="24" viewBox="0 0 17 24" fill="none" xmlns="http://www.w3.org/2000/svg">
<path d="M9 12C10.1867 12 11.3467 11.6481 12.3334 10.9888C13.3201 10.3295 14.0891 9.39246 14.5433 8.2961C14.9974 7.19975 15.1162 5.99335 14.8847 4.82946C14.6532 3.66557 14.0818 2.59648 13.2426 1.75736C12.4035 0.918247 11.3344 0.346802 10.1705 0.115291C9.00665 -0.11622 7.80025 0.00259972 6.7039 0.456725C5.60754 0.910851 4.67047 1.67989 4.01118 2.66658C3.35189 3.65328 3 4.81331 3 6C3.00159 7.59081 3.63424 9.11601 4.75911 10.2409C5.88399 11.3658 7.40919 11.9984 9 12ZM9 2C9.79112 2 10.5645 2.2346 11.2223 2.67412C11.8801 3.11365 12.3928 3.73836 12.6955 4.46927C12.9983 5.20017 13.0775 6.00444 12.9231 6.78036C12.7688 7.55629 12.3878 8.26902 11.8284 8.82843C11.269 9.38784 10.5563 9.7688 9.78036 9.92314C9.00444 10.0775 8.20017 9.99827 7.46926 9.69552C6.73836 9.39277 6.11365 8.88008 5.67412 8.22228C5.2346 7.56448 5 6.79113 5 6C5 4.93914 5.42143 3.92172 6.17157 3.17157C6.92172 2.42143 7.93913 2 9 2V2Z" fill="white"/>
<path d="M8.5 14.0001C6.24643 14.0027 4.08587 14.9518 2.49235 16.639C0.898836 18.3263 0.00249981 20.6139 0 23.0001C0 23.2653 0.0995036 23.5196 0.276621 23.7072C0.453739 23.8947 0.693962 24.0001 0.944444 24.0001C1.19493 24.0001 1.43515 23.8947 1.61227 23.7072C1.78938 23.5196 1.88889 23.2653 1.88889 23.0001C1.88889 21.1436 2.58541 19.3631 3.82524 18.0503C5.06506 16.7376 6.74662 16.0001 8.5 16.0001C10.2534 16.0001 11.9349 16.7376 13.1748 18.0503C14.4146 19.3631 15.1111 21.1436 15.1111 23.0001C15.1111 23.2653 15.2106 23.5196 15.3877 23.7072C15.5648 23.8947 15.8051 24.0001 16.0556 24.0001C16.306 24.0001 16.5463 23.8947 16.7234 23.7072C16.9005 23.5196 17 23.2653 17 23.0001C16.9975 20.6139 16.1012 18.3263 14.5076 16.639C12.9141 14.9518 10.7536 14.0027 8.5 14.0001V14.0001Z" fill="white"/>
</svg>
