<svg width="23" height="23" viewBox="0 0 23 23" fill="none" xmlns="http://www.w3.org/2000/svg">
<circle cx="11.5" cy="11.5" r="11.5" fill="#E96963"/>
<path d="M18 7.36355C17.9936 7.35878 17.9825 7.35496 17.9816 7.34955C17.9333 7.0124 17.7626 6.74466 17.523 6.51066C17.169 6.16461 16.8238 5.81027 16.4717 5.46166C15.8552 4.84691 15.0267 4.84595 14.4118 5.45975C13.8821 5.98887 13.3525 6.5183 12.8228 7.04806C10.4743 9.39671 8.12551 11.7449 5.77637 14.0928C5.68453 14.1844 5.60985 14.2819 5.5857 14.413C5.4411 15.2022 5.29968 15.9918 5.14841 16.78C5.10297 17.0182 5.08167 17.2617 5 17.4922V17.6953C5.02415 17.8742 5.12574 17.9758 5.30477 18H5.48241C5.49163 17.993 5.50021 17.9815 5.51038 17.9796C6.51906 17.7931 7.52742 17.6049 8.53705 17.4228C8.67861 17.3982 8.80857 17.3288 8.90792 17.2248C11.7803 14.35 14.6543 11.4758 17.5297 8.6023C17.5773 8.55454 17.625 8.50679 17.6685 8.45458C17.8366 8.26311 17.9442 8.02602 17.9778 7.77328C18.0022 7.73285 17.9698 7.68255 18 7.64276V7.36355ZM6.94077 16.9424C6.60899 17.0042 6.2769 17.0656 5.94544 17.1306C5.87425 17.1446 5.85709 17.1306 5.87076 17.0567C5.98262 16.4636 6.09321 15.8698 6.20222 15.2767C6.20431 15.2689 6.20787 15.2616 6.2127 15.2551L7.75051 16.7934C7.48547 16.8421 7.21344 16.8915 6.94077 16.9424ZM15.9722 9.08175L13.4959 11.5583C11.8841 13.1713 10.2727 14.7843 8.66194 16.3974C8.57741 16.4824 8.53705 16.4715 8.45982 16.3935C7.84076 15.7683 7.21863 15.1463 6.59342 14.5276C6.52223 14.457 6.52446 14.4223 6.59342 14.3529C9.03598 11.9144 11.4765 9.47365 13.9151 7.03055C13.9929 6.95255 14.0273 6.96242 14.0984 7.03437C14.7207 7.66218 15.3457 8.28829 15.9734 8.9127C15.9998 8.93944 16.0249 8.96746 16.0538 8.99834C16.023 9.02763 15.9985 9.05564 15.9722 9.08175ZM17.0507 8.00219C16.9201 8.14035 16.7803 8.27025 16.6487 8.40778C16.6049 8.45394 16.582 8.4463 16.541 8.40491C15.8931 7.75461 15.244 7.10536 14.5936 6.45718C14.5561 6.42025 14.5484 6.39892 14.5901 6.35881C14.7401 6.21554 14.8837 6.06591 15.035 5.92297C15.1407 5.82377 15.2792 5.7671 15.424 5.76379C15.607 5.76379 15.7554 5.823 15.874 5.94016C16.2712 6.3327 16.6703 6.72365 17.0581 7.12542C17.3098 7.3887 17.3012 7.73667 17.0507 8.00219Z" fill="white"/>
</svg>
