<svg width="19" height="19" viewBox="0 0 19 19" fill="none" xmlns="http://www.w3.org/2000/svg">
<path d="M19.0001 7.70694C18.9026 8.04671 18.6801 8.28471 18.4302 8.51179C17.171 9.65471 15.9192 10.8069 14.6608 11.9507C14.5512 12.0507 14.5133 12.134 14.548 12.2904C14.9413 14.0649 15.3234 15.842 15.7136 17.6173C15.8176 18.09 15.7241 18.4945 15.3444 18.7863C14.9655 19.0773 14.5633 19.0572 14.1659 18.8082C12.6625 17.8688 11.1583 16.9319 9.65811 15.9883C9.53961 15.9143 9.45819 15.9202 9.34453 15.9917C7.84839 16.9302 6.34983 17.8646 4.85128 18.7981C4.30474 19.1387 3.7195 19.0185 3.40592 18.5046C3.24067 18.233 3.21891 17.9411 3.28662 17.6316C3.67758 15.8496 4.0629 14.0666 4.45628 12.2862C4.48772 12.1432 4.46596 12.0583 4.35713 11.9591C3.03753 10.7606 1.72438 9.55463 0.407197 8.35368C0.062988 8.03998 -0.0853362 7.65564 0.0533147 7.19645C0.187935 6.7482 0.501511 6.5001 0.954545 6.45637C1.98798 6.35629 3.02222 6.25789 4.05645 6.15949C4.78921 6.08969 5.52115 6.01905 6.25391 5.95681C6.37885 5.94588 6.42964 5.88617 6.47559 5.77431C7.16239 4.0881 7.85162 2.40356 8.54326 0.719031C8.83749 -0.00255163 9.60087 -0.222895 10.1498 0.250591C10.3014 0.380947 10.3941 0.552512 10.4707 0.739215C11.1567 2.4187 11.8475 4.09567 12.5303 5.77684C12.5819 5.90467 12.6504 5.94672 12.7729 5.95765C14.4778 6.11408 16.182 6.28312 17.8885 6.42946C18.4592 6.47823 18.8389 6.73811 19.0001 7.31924V7.7061V7.70694Z" fill="#D33930"/>
</svg>
