<svg width="25" height="25" viewBox="0 0 25 25" fill="none" xmlns="http://www.w3.org/2000/svg">
<g clip-path="url(#clip0_139_188)">
<path d="M12.5232 11.6711C15.5327 11.6711 18.5419 11.6711 21.5509 11.6711C21.7645 11.6711 21.9684 11.7003 22.1417 11.829C22.2802 11.93 22.3842 12.0711 22.4398 12.2332C22.4953 12.3954 22.4996 12.5707 22.452 12.7353C22.4044 12.8999 22.3073 13.046 22.1739 13.1535C22.0404 13.2611 21.8771 13.325 21.7061 13.3365C21.6282 13.3414 21.5496 13.3365 21.4716 13.3365H3.52055C3.39934 13.3424 3.27785 13.3356 3.15804 13.3163C2.95675 13.2727 2.7787 13.1562 2.6581 12.9893C2.5375 12.8224 2.48287 12.6168 2.50471 12.412C2.55133 11.9848 2.90548 11.6739 3.36539 11.6725C4.99537 11.6697 6.6258 11.6697 8.25671 11.6725L12.5232 11.6711Z" fill="white"/>
<path d="M0.0018469 6.12607C0.0018469 5.21545 0.0018469 4.30553 0.0018469 3.39491C0.00741312 1.48462 1.46855 0.0153809 3.3729 0.0153809C5.27724 0.0153809 7.17046 0.0153809 9.06923 0.0153809C9.6189 0.0153809 9.9974 0.358342 9.9967 0.850175C9.99601 1.34201 9.6182 1.68149 9.06715 1.68149C7.21174 1.68149 5.35633 1.68149 3.50092 1.68149C2.34036 1.68149 1.66893 2.35767 1.66893 3.52569C1.66893 5.3896 1.66893 7.25351 1.66893 9.11742C1.66893 9.75395 1.10605 10.17 0.547339 9.95639C0.383441 9.89577 0.242835 9.78502 0.145525 9.63989C0.0482152 9.49476 -0.000842182 9.32264 0.00532918 9.14803C-0.000237042 8.13723 0.0018469 7.13131 0.0018469 6.12607Z" fill="white"/>
<path d="M24.9915 6.1809C24.9915 7.17778 24.9957 8.17467 24.9915 9.17225C24.9926 9.37611 24.9187 9.57326 24.7837 9.72609C24.6488 9.87893 24.4623 9.97676 24.2599 10.0009C24.0574 10.0251 23.8531 9.9739 23.686 9.85711C23.5189 9.74033 23.4005 9.56613 23.3537 9.36773C23.3326 9.25727 23.3244 9.14475 23.3293 9.03242C23.3293 7.1852 23.3293 5.33845 23.3293 3.49217C23.3293 2.3652 22.6433 1.67788 21.5203 1.67719C19.6417 1.67719 17.7568 1.67719 15.8754 1.67719C15.2555 1.67719 14.8499 1.12066 15.051 0.564127C15.1035 0.407047 15.2033 0.270024 15.3367 0.171783C15.47 0.0735409 15.6305 0.018873 15.7961 0.0152495C17.825 0.0110755 19.8553 -0.0223162 21.8835 0.0277714C23.568 0.0695111 24.9602 1.55405 24.9873 3.24242C25.0033 4.22192 24.9873 5.20141 24.9873 6.1816L24.9915 6.1809Z" fill="white"/>
<path d="M6.11794 24.9964C5.19046 24.9964 4.2623 25.0013 3.33482 24.9964C2.45352 24.9968 1.60803 24.6478 0.983685 24.0259C0.359338 23.404 0.0070808 22.56 0.004134 21.6788C-0.00351956 19.7449 0.004134 17.8117 0.004134 15.8784C0.004134 15.4241 0.290793 15.0784 0.706868 15.0109C0.89725 14.9833 1.09135 15.0217 1.25691 15.1196C1.42247 15.2176 1.54952 15.3692 1.61695 15.5494C1.66013 15.6812 1.67807 15.82 1.66983 15.9584C1.66983 17.8135 1.66983 19.6686 1.66983 21.5237C1.66983 22.6472 2.35795 23.3324 3.48789 23.3324C5.36093 23.3324 7.23396 23.3324 9.107 23.3324C9.74363 23.3324 10.1562 23.8889 9.94193 24.4538C9.8153 24.794 9.51124 24.9957 9.107 24.9964C8.11203 24.9983 7.11568 24.9983 6.11794 24.9964Z" fill="white"/>
<path d="M18.8494 24.9966C17.8433 24.9966 16.8372 25.0008 15.8318 24.9966C15.628 24.9982 15.4307 24.9248 15.2775 24.7903C15.1244 24.6559 15.026 24.4698 15.0013 24.2675C14.9765 24.0652 15.027 23.8609 15.1433 23.6935C15.2595 23.5261 15.4332 23.4073 15.6314 23.3597C15.7416 23.3382 15.8539 23.3295 15.9661 23.334C17.8043 23.334 19.6428 23.334 21.4815 23.334C22.6476 23.334 23.326 22.6606 23.326 21.5009C23.326 19.6282 23.326 17.7555 23.326 15.8827C23.326 15.4932 23.5229 15.1871 23.8527 15.064C24.0018 15.001 24.1666 14.985 24.325 15.0179C24.4835 15.0508 24.6282 15.1312 24.7398 15.2483C24.8197 15.3222 24.8833 15.412 24.9264 15.5119C24.9696 15.6118 24.9913 15.7197 24.9903 15.8285C24.9903 17.8313 25.0147 19.8341 24.9806 21.8362C24.9514 23.5364 23.4687 24.9667 21.7619 24.9952C20.7878 25.0112 19.82 24.9952 18.8487 24.9952L18.8494 24.9966Z" fill="white"/>
</g>
<defs>
<clipPath id="clip0_139_188">
<rect width="25" height="25" fill="white"/>
</clipPath>
</defs>
</svg>
