<svg width="25" height="25" viewBox="0 0 25 25" fill="none" xmlns="http://www.w3.org/2000/svg">
<path d="M23.739 22.3251L17.77 16.3561C19.3966 14.3666 20.1964 11.8281 20.0039 9.2656C19.8113 6.70306 18.6412 4.31255 16.7356 2.58854C14.83 0.864521 12.3346 -0.0610994 9.76566 0.0031326C7.1967 0.0673646 4.75071 1.11653 2.93362 2.93363C1.11653 4.75072 0.0673644 7.19672 0.0031326 9.76568C-0.0610993 12.3346 0.86452 14.83 2.58853 16.7356C4.31254 18.6413 6.70304 19.8114 9.26558 20.0039C11.8281 20.1964 14.3666 19.3967 16.356 17.7701L22.325 23.7391C22.5136 23.9212 22.7662 24.022 23.0284 24.0198C23.2906 24.0175 23.5414 23.9123 23.7268 23.7269C23.9123 23.5415 24.0174 23.2907 24.0197 23.0285C24.022 22.7663 23.9212 22.5137 23.739 22.3251ZM10.032 18.0321C8.44976 18.0321 6.90304 17.5629 5.58745 16.6838C4.27186 15.8048 3.24647 14.5553 2.64097 13.0935C2.03547 11.6317 1.87705 10.0232 2.18573 8.47131C2.49441 6.91946 3.25634 5.49399 4.37516 4.37517C5.49398 3.25634 6.91944 2.49441 8.47129 2.18573C10.0231 1.87705 11.6317 2.03548 13.0935 2.64098C14.5553 3.24648 15.8047 4.27186 16.6838 5.58746C17.5628 6.90306 18.032 8.44978 18.032 10.032C18.0296 12.153 17.186 14.1865 15.6862 15.6863C14.1865 17.1861 12.153 18.0297 10.032 18.0321Z" fill="#7A7A7A"/>
</svg>
