<svg width="49" height="49" viewBox="0 0 49 49" fill="none" xmlns="http://www.w3.org/2000/svg">
<g filter="url(#filter0_d_1122_379)">
<g filter="url(#filter1_b_1122_379)">
<rect x="9" y="7" width="31" height="31" rx="15.5" fill="#FFFBFB"/>
</g>
</g>
<path d="M24.7965 19.9607C24.1954 19.9607 23.6078 20.1389 23.108 20.4729C22.6082 20.8068 22.2187 21.2815 21.9887 21.8368C21.7586 22.3922 21.6985 23.0033 21.8157 23.5928C21.933 24.1824 22.2224 24.7239 22.6475 25.1489C23.0725 25.574 23.6141 25.8634 24.2036 25.9807C24.7932 26.098 25.4043 26.0378 25.9596 25.8078C26.5149 25.5777 26.9896 25.1882 27.3236 24.6884C27.6575 24.1886 27.8358 23.601 27.8358 22.9999C27.8358 22.1939 27.5156 21.4208 26.9456 20.8509C26.3756 20.2809 25.6026 19.9607 24.7965 19.9607ZM24.7965 24.5195C24.496 24.5195 24.2022 24.4304 23.9523 24.2634C23.7024 24.0964 23.5076 23.8591 23.3926 23.5814C23.2776 23.3038 23.2475 22.9982 23.3061 22.7034C23.3648 22.4087 23.5095 22.1379 23.722 21.9254C23.9345 21.7129 24.2053 21.5681 24.5001 21.5095C24.7949 21.4509 25.1004 21.481 25.3781 21.596C25.6557 21.711 25.8931 21.9058 26.06 22.1557C26.227 22.4056 26.3161 22.6994 26.3161 22.9999C26.3161 23.4029 26.156 23.7894 25.8711 24.0744C25.5861 24.3594 25.1996 24.5195 24.7965 24.5195Z" fill="#D33930"/>
<path d="M31.8582 24.4436L31.5208 24.2491C31.6727 23.4227 31.6727 22.5756 31.5208 21.7493L31.8582 21.5548C32.1176 21.4051 32.345 21.2058 32.5274 20.9683C32.7098 20.7307 32.8436 20.4596 32.9213 20.1703C32.9989 19.881 33.0187 19.5793 32.9797 19.2824C32.9407 18.9854 32.8436 18.699 32.694 18.4396C32.5443 18.1802 32.345 17.9528 32.1075 17.7704C31.8699 17.588 31.5987 17.4542 31.3095 17.3765C31.0202 17.2989 30.7185 17.2791 30.4215 17.3181C30.1246 17.3571 29.8382 17.4542 29.5788 17.6038L29.2407 17.7991C28.6021 17.2535 27.8682 16.8305 27.076 16.5515V16.1617C27.076 15.5572 26.8358 14.9774 26.4084 14.5499C25.9809 14.1225 25.4011 13.8823 24.7966 13.8823C24.1921 13.8823 23.6123 14.1225 23.1848 14.5499C22.7573 14.9774 22.5172 15.5572 22.5172 16.1617V16.5515C21.725 16.8315 20.9914 17.2555 20.3533 17.8021L20.0136 17.6054C19.4897 17.3031 18.8672 17.2213 18.283 17.3781C17.6987 17.5348 17.2007 17.9172 16.8985 18.4411C16.5962 18.9651 16.5144 19.5876 16.6712 20.1718C16.8279 20.756 17.2103 21.2541 17.7342 21.5563L18.0716 21.7508C17.9197 22.5772 17.9197 23.4242 18.0716 24.2506L17.7342 24.4451C17.2103 24.7474 16.8279 25.2454 16.6712 25.8296C16.5144 26.4138 16.5962 27.0363 16.8985 27.5603C17.2007 28.0842 17.6987 28.4666 18.283 28.6233C18.8672 28.7801 19.4897 28.6983 20.0136 28.3961L20.3518 28.2008C20.9906 28.7465 21.7247 29.1694 22.5172 29.4484V29.8382C22.5172 30.4427 22.7573 31.0225 23.1848 31.4499C23.6123 31.8774 24.1921 32.1176 24.7966 32.1176C25.4011 32.1176 25.9809 31.8774 26.4084 31.4499C26.8358 31.0225 27.076 30.4427 27.076 29.8382V29.4484C27.8682 29.1683 28.6018 28.7443 29.2399 28.1977L29.5795 28.3938C30.1035 28.696 30.726 28.7778 31.3102 28.6211C31.8944 28.4643 32.3925 28.0819 32.6947 27.558C32.997 27.0341 33.0788 26.4115 32.922 25.8273C32.7653 25.2431 32.3829 24.7451 31.8589 24.4428L31.8582 24.4436ZM29.9222 21.5746C30.1795 22.5069 30.1795 23.4915 29.9222 24.4238C29.8773 24.5861 29.8875 24.7587 29.9513 24.9145C30.0152 25.0703 30.1289 25.2005 30.2748 25.2847L31.0984 25.7603C31.273 25.8611 31.4004 26.0271 31.4527 26.2218C31.5049 26.4165 31.4776 26.624 31.3769 26.7986C31.2761 26.9732 31.1101 27.1006 30.9154 27.1528C30.7207 27.2051 30.5132 27.1778 30.3386 27.077L29.5134 26.5999C29.3675 26.5153 29.1975 26.4818 29.0304 26.5045C28.8633 26.5272 28.7084 26.6048 28.5903 26.7253C27.914 27.4157 27.062 27.9082 26.1262 28.1499C25.9629 28.1919 25.8182 28.287 25.7149 28.4203C25.6116 28.5536 25.5555 28.7175 25.5556 28.8861V29.8382C25.5556 30.0397 25.4756 30.2329 25.3331 30.3754C25.1906 30.5179 24.9973 30.598 24.7958 30.598C24.5943 30.598 24.4011 30.5179 24.2586 30.3754C24.1161 30.2329 24.036 30.0397 24.036 29.8382V28.8869C24.0361 28.7182 23.9801 28.5544 23.8768 28.4211C23.7735 28.2878 23.6288 28.1926 23.4654 28.1506C22.5296 27.908 21.6779 27.4144 21.0021 26.723C20.884 26.6026 20.7292 26.5249 20.562 26.5022C20.3949 26.4795 20.2249 26.5131 20.079 26.5976L19.2554 27.074C19.1689 27.1247 19.0733 27.1578 18.974 27.1713C18.8747 27.1849 18.7738 27.1787 18.6769 27.1531C18.58 27.1275 18.4892 27.083 18.4096 27.0221C18.33 26.9612 18.2632 26.8852 18.2131 26.7984C18.163 26.7117 18.1305 26.6158 18.1176 26.5165C18.1047 26.4171 18.1116 26.3162 18.1378 26.2195C18.1641 26.1228 18.2092 26.0322 18.2706 25.953C18.332 25.8738 18.4084 25.8075 18.4956 25.758L19.3192 25.2824C19.465 25.1982 19.5788 25.068 19.6426 24.9122C19.7064 24.7564 19.7167 24.5838 19.6717 24.4215C19.4144 23.4892 19.4144 22.5046 19.6717 21.5723C19.7158 21.4103 19.7051 21.2384 19.6412 21.0832C19.5773 20.928 19.4638 20.7983 19.3184 20.7145L18.4948 20.2388C18.3202 20.1381 18.1928 19.9721 18.1405 19.7774C18.0883 19.5826 18.1156 19.3752 18.2163 19.2006C18.3171 19.0259 18.4831 18.8985 18.6778 18.8463C18.8725 18.7941 19.08 18.8213 19.2546 18.9221L20.0797 19.3992C20.2253 19.484 20.3949 19.5179 20.5619 19.4958C20.7288 19.4736 20.8837 19.3967 21.0021 19.2769C21.6784 18.5865 22.5304 18.0939 23.4662 17.8523C23.63 17.8102 23.7751 17.7146 23.8785 17.5807C23.9818 17.4467 24.0376 17.2822 24.0368 17.113V16.1617C24.0368 15.9602 24.1168 15.767 24.2593 15.6245C24.4018 15.482 24.5951 15.4019 24.7966 15.4019C24.9981 15.4019 25.1914 15.482 25.3339 15.6245C25.4763 15.767 25.5564 15.9602 25.5564 16.1617V17.113C25.5563 17.2816 25.6123 17.4455 25.7156 17.5788C25.819 17.7121 25.9637 17.8073 26.127 17.8492C27.0631 18.0917 27.9151 18.5854 28.591 19.2769C28.7092 19.3973 28.864 19.475 29.0312 19.4977C29.1983 19.5204 29.3682 19.4868 29.5142 19.4023L30.3378 18.9259C30.4243 18.8752 30.5199 18.8421 30.6192 18.8286C30.7184 18.815 30.8194 18.8212 30.9163 18.8468C31.0132 18.8724 31.104 18.9169 31.1836 18.9778C31.2632 19.0387 31.33 19.1147 31.3801 19.2014C31.4302 19.2882 31.4626 19.3841 31.4756 19.4834C31.4885 19.5828 31.4816 19.6837 31.4553 19.7804C31.4291 19.8771 31.384 19.9677 31.3226 20.0469C31.2612 20.1261 31.1847 20.1923 31.0976 20.2419L30.274 20.7175C30.1289 20.8016 30.0157 20.9314 29.9521 21.0865C29.8885 21.2417 29.878 21.4136 29.9222 21.5753V21.5746Z" fill="#D33930"/>
<defs>
<filter id="filter0_d_1122_379" x="0" y="0" width="49" height="49" filterUnits="userSpaceOnUse" color-interpolation-filters="sRGB">
<feFlood flood-opacity="0" result="BackgroundImageFix"/>
<feColorMatrix in="SourceAlpha" type="matrix" values="0 0 0 0 0 0 0 0 0 0 0 0 0 0 0 0 0 0 127 0" result="hardAlpha"/>
<feOffset dy="2"/>
<feGaussianBlur stdDeviation="4.5"/>
<feComposite in2="hardAlpha" operator="out"/>
<feColorMatrix type="matrix" values="0 0 0 0 0 0 0 0 0 0 0 0 0 0 0 0 0 0 0.05 0"/>
<feBlend mode="normal" in2="BackgroundImageFix" result="effect1_dropShadow_1122_379"/>
<feBlend mode="normal" in="SourceGraphic" in2="effect1_dropShadow_1122_379" result="shape"/>
</filter>
<filter id="filter1_b_1122_379" x="5" y="3" width="39" height="39" filterUnits="userSpaceOnUse" color-interpolation-filters="sRGB">
<feFlood flood-opacity="0" result="BackgroundImageFix"/>
<feGaussianBlur in="BackgroundImage" stdDeviation="2"/>
<feComposite in2="SourceAlpha" operator="in" result="effect1_backgroundBlur_1122_379"/>
<feBlend mode="normal" in="SourceGraphic" in2="effect1_backgroundBlur_1122_379" result="shape"/>
</filter>
</defs>
</svg>
