<svg width="22" height="24" viewBox="0 0 22 24" fill="none" xmlns="http://www.w3.org/2000/svg">
<path d="M10.7966 8C10.0055 8 9.23215 8.2346 8.57436 8.67412C7.91656 9.11365 7.40387 9.73836 7.10112 10.4693C6.79836 11.2002 6.71915 12.0044 6.87349 12.7804C7.02783 13.5563 7.4088 14.269 7.96821 14.8284C8.52762 15.3878 9.24035 15.7688 10.0163 15.9231C10.7922 16.0775 11.5965 15.9983 12.3274 15.6955C13.0583 15.3928 13.683 14.8801 14.1225 14.2223C14.5621 13.5645 14.7966 12.7911 14.7966 12C14.7966 10.9391 14.3752 9.92172 13.6251 9.17157C12.8749 8.42143 11.8575 8 10.7966 8ZM10.7966 14C10.4011 14 10.0144 13.8827 9.6855 13.6629C9.3566 13.4432 9.10025 13.1308 8.94888 12.7654C8.7975 12.3999 8.7579 11.9978 8.83507 11.6098C8.91224 11.2219 9.10272 10.8655 9.38243 10.5858C9.66213 10.3061 10.0185 10.1156 10.4065 10.0384C10.7944 9.96126 11.1966 10.0009 11.562 10.1522C11.9275 10.3036 12.2398 10.56 12.4596 10.8889C12.6793 11.2178 12.7966 11.6044 12.7966 12C12.7966 12.5304 12.5859 13.0391 12.2109 13.4142C11.8358 13.7893 11.3271 14 10.7966 14Z" fill="white"/>
<path d="M20.0907 13.9L19.6467 13.644C19.8466 12.5564 19.8466 11.4416 19.6467 10.354L20.0907 10.098C20.4321 9.90101 20.7314 9.63871 20.9715 9.32606C21.2115 9.01341 21.3877 8.65654 21.4898 8.27582C21.5919 7.8951 21.6181 7.49798 21.5668 7.10716C21.5155 6.71633 21.3877 6.33944 21.1907 5.998C20.9937 5.65656 20.7314 5.35727 20.4187 5.1172C20.1061 4.87714 19.7492 4.701 19.3685 4.59886C18.9878 4.49672 18.5907 4.47056 18.1998 4.52189C17.809 4.57321 17.4321 4.70102 17.0907 4.898L16.6457 5.155C15.8052 4.43692 14.8393 3.88025 13.7967 3.513V3C13.7967 2.20435 13.4806 1.44129 12.918 0.878679C12.3554 0.31607 11.5923 0 10.7967 0C10.001 0 9.23796 0.31607 8.67535 0.878679C8.11274 1.44129 7.79667 2.20435 7.79667 3V3.513C6.75406 3.88157 5.78852 4.4396 4.94867 5.159L4.50167 4.9C3.81211 4.50217 2.99275 4.39457 2.22386 4.60086C1.45496 4.80715 0.799498 5.31044 0.401674 6C0.00384909 6.68956 -0.103754 7.50892 0.102536 8.27781C0.308826 9.04671 0.812111 9.70217 1.50167 10.1L1.94567 10.356C1.74578 11.4436 1.74578 12.5584 1.94567 13.646L1.50167 13.902C0.812111 14.2998 0.308826 14.9553 0.102536 15.7242C-0.103754 16.4931 0.00384909 17.3124 0.401674 18.002C0.799498 18.6916 1.45496 19.1948 2.22386 19.4011C2.99275 19.6074 3.81211 19.4998 4.50167 19.102L4.94667 18.845C5.78744 19.5632 6.75365 20.1199 7.79667 20.487V21C7.79667 21.7956 8.11274 22.5587 8.67535 23.1213C9.23796 23.6839 10.001 24 10.7967 24C11.5923 24 12.3554 23.6839 12.918 23.1213C13.4806 22.5587 13.7967 21.7956 13.7967 21V20.487C14.8393 20.1184 15.8048 19.5604 16.6447 18.841L17.0917 19.099C17.7812 19.4968 18.6006 19.6044 19.3695 19.3981C20.1384 19.1918 20.7938 18.6886 21.1917 17.999C21.5895 17.3094 21.6971 16.4901 21.4908 15.7212C21.2845 14.9523 20.7812 14.2968 20.0917 13.899L20.0907 13.9ZM17.5427 10.124C17.8813 11.3511 17.8813 12.6469 17.5427 13.874C17.4835 14.0876 17.497 14.3147 17.581 14.5198C17.665 14.7249 17.8147 14.8962 18.0067 15.007L19.0907 15.633C19.3205 15.7656 19.4882 15.9841 19.5569 16.2403C19.6257 16.4966 19.5898 16.7697 19.4572 16.9995C19.3246 17.2293 19.1061 17.397 18.8498 17.4658C18.5936 17.5345 18.3205 17.4986 18.0907 17.366L17.0047 16.738C16.8126 16.6267 16.5889 16.5826 16.3689 16.6124C16.1489 16.6423 15.9451 16.7445 15.7897 16.903C14.8996 17.8117 13.7782 18.46 12.5467 18.778C12.3317 18.8333 12.1412 18.9585 12.0053 19.1339C11.8693 19.3093 11.7956 19.525 11.7957 19.747V21C11.7957 21.2652 11.6903 21.5196 11.5028 21.7071C11.3152 21.8946 11.0609 22 10.7957 22C10.5305 22 10.2761 21.8946 10.0886 21.7071C9.90103 21.5196 9.79567 21.2652 9.79567 21V19.748C9.79578 19.526 9.72204 19.3103 9.58607 19.1349C9.45011 18.9595 9.25964 18.8343 9.04467 18.779C7.81302 18.4597 6.692 17.81 5.80267 16.9C5.6472 16.7415 5.44341 16.6393 5.22343 16.6094C5.00345 16.5796 4.77978 16.6237 4.58767 16.735L3.50367 17.362C3.3899 17.4287 3.26406 17.4722 3.1334 17.4901C3.00273 17.508 2.86983 17.4998 2.74233 17.4661C2.61483 17.4324 2.49525 17.3738 2.39049 17.2937C2.28573 17.2136 2.19785 17.1135 2.13191 16.9993C2.06597 16.8851 2.02327 16.759 2.00627 16.6282C1.98927 16.4974 1.99831 16.3646 2.03286 16.2373C2.06742 16.11 2.1268 15.9908 2.20761 15.8866C2.28841 15.7824 2.38903 15.6952 2.50367 15.63L3.58767 15.004C3.77962 14.8932 3.92935 14.7219 4.01333 14.5168C4.09732 14.3117 4.1108 14.0846 4.05167 13.871C3.71303 12.6439 3.71303 11.3481 4.05167 10.121C4.10974 9.90788 4.09561 9.68153 4.01149 9.47729C3.92737 9.27305 3.77799 9.1024 3.58667 8.992L2.50267 8.366C2.27286 8.23339 2.10514 8.01492 2.03641 7.75865C1.96768 7.50238 2.00356 7.22931 2.13617 6.9995C2.26878 6.76969 2.48725 6.60197 2.74352 6.53324C2.99979 6.4645 3.27286 6.50039 3.50267 6.633L4.58867 7.261C4.78025 7.37251 5.00345 7.41721 5.2232 7.38807C5.44295 7.35892 5.64678 7.25759 5.80267 7.1C6.69276 6.19134 7.8141 5.54302 9.04567 5.225C9.2613 5.16956 9.45227 5.04375 9.5883 4.8675C9.72434 4.69125 9.79767 4.47464 9.79667 4.252V3C9.79667 2.73478 9.90203 2.48043 10.0896 2.29289C10.2771 2.10536 10.5315 2 10.7967 2C11.0619 2 11.3162 2.10536 11.5038 2.29289C11.6913 2.48043 11.7967 2.73478 11.7967 3V4.252C11.7966 4.47396 11.8703 4.68964 12.0063 4.86508C12.1422 5.04052 12.3327 5.16573 12.5477 5.221C13.7797 5.54015 14.9011 6.18988 15.7907 7.1C15.9461 7.25846 16.1499 7.36069 16.3699 7.39056C16.5899 7.42044 16.8136 7.37626 17.0057 7.265L18.0897 6.638C18.2034 6.5713 18.3293 6.52777 18.4599 6.5099C18.5906 6.49203 18.7235 6.50019 18.851 6.5339C18.9785 6.56761 19.0981 6.6262 19.2028 6.70631C19.3076 6.78642 19.3955 6.88646 19.4614 7.00067C19.5274 7.11488 19.5701 7.24101 19.5871 7.37179C19.6041 7.50257 19.595 7.63542 19.5605 7.76269C19.5259 7.88996 19.4665 8.00914 19.3857 8.11337C19.3049 8.2176 19.2043 8.30482 19.0897 8.37L18.0057 8.996C17.8147 9.1067 17.6658 9.27747 17.582 9.48169C17.4983 9.68591 17.4844 9.9121 17.5427 10.125V10.124Z" fill="white"/>
</svg>
