<svg width="17" height="19" viewBox="0 0 17 19" fill="none" xmlns="http://www.w3.org/2000/svg">
<g clip-path="url(#clip0_594_1664)">
<path d="M13.4726 19C13.2041 18.9026 12.9198 18.8642 12.6557 18.7444C11.3069 18.1312 10.5676 16.6975 10.8483 15.212C10.8684 15.1047 10.8483 15.0627 10.7612 15.0127C8.95995 13.9606 7.16047 12.9077 5.36274 11.8485C5.25201 11.7833 5.19273 11.8029 5.10118 11.8816C4.17442 12.678 3.12298 12.8907 1.99831 12.4545C0.867532 12.0157 0.199703 11.1433 0.0296947 9.90536C-0.151648 8.58965 0.496129 7.32757 1.65044 6.69564C2.75942 6.08784 4.15349 6.25409 5.10031 7.11573C5.20145 7.2078 5.26683 7.20511 5.37756 7.14076C7.1439 6.10124 8.91287 5.0653 10.6836 4.03472C10.8196 3.95517 10.8693 3.88903 10.8405 3.71384C10.5153 1.7662 11.9041 0.208261 13.47 0.0294962C13.4839 0.0277085 13.4961 0.00983206 13.5092 0H14.1953C14.6687 0.0187703 15.1038 0.165357 15.4987 0.427248C16.4525 1.05918 16.9643 1.95211 16.987 3.12838C17.0088 4.25907 16.5284 5.13412 15.6661 5.79377C15.2363 6.12269 14.7368 6.30146 14.1953 6.36134C13.3889 6.44983 12.674 6.22101 12.0166 5.75533C11.912 5.68115 11.817 5.59534 11.7324 5.49881C11.6443 5.3987 11.5606 5.39602 11.4473 5.46216C10.674 5.91622 9.89804 6.36671 9.1256 6.82166C8.21191 7.35975 7.29473 7.89336 6.3793 8.42787C6.32176 8.46183 6.26596 8.49758 6.20755 8.53066C6.12036 8.58071 6.0977 8.65043 6.12124 8.74875C6.24155 9.24929 6.24329 9.75251 6.12036 10.2522C6.08375 10.3996 6.1718 10.4542 6.26858 10.5087C6.81173 10.8153 7.34617 11.1388 7.88497 11.4535C9.06805 12.1435 10.2485 12.838 11.4307 13.5289C11.5458 13.596 11.6286 13.6076 11.7324 13.5039C12.2494 12.9917 12.8684 12.7084 13.5842 12.6387C14.3959 12.5591 15.13 12.7745 15.7664 13.2831C17.2538 14.471 17.3497 16.5295 16.2939 17.8559C15.8109 18.4628 15.2014 18.8516 14.4403 18.9768C14.3584 18.9902 14.2721 18.9571 14.1936 19.0009H13.4708L13.4726 19Z" fill="#D33930"/>
</g>
<defs>
<clipPath id="clip0_594_1664">
<rect width="17" height="19" fill="white"/>
</clipPath>
</defs>
</svg>
