<svg width="221" height="221" viewBox="0 0 221 221" fill="none" xmlns="http://www.w3.org/2000/svg">
<g clip-path="url(#clip0_1503_454)">
<path d="M110.498 220.771C171.4 220.771 220.771 171.4 220.771 110.498C220.771 49.5957 171.4 0.224854 110.498 0.224854C49.5957 0.224854 0.224884 49.5957 0.224884 110.498C0.224884 171.4 49.5957 220.771 110.498 220.771Z" fill="#E55725" stroke="#F2E7C8" stroke-miterlimit="10"/>
<path d="M183.038 182.801C222.967 142.872 222.967 78.1346 183.038 38.2056C143.109 -1.72341 78.371 -1.72338 38.442 38.2056C-1.48698 78.1346 -1.48692 142.872 38.4421 182.801C78.3711 222.73 143.109 222.73 183.038 182.801Z" fill="#F2E7C8"/>
<path d="M110.741 11.4241C56.0224 11.4241 11.6668 55.7797 11.6668 110.502C11.6668 165.225 56.0224 209.576 110.741 209.576C165.459 209.576 209.828 165.221 209.828 110.502C209.828 55.7842 165.463 11.4241 110.741 11.4241ZM110.741 182.959C91.5238 182.959 73.0942 175.325 59.5059 161.737C45.9177 148.149 38.2839 129.719 38.2839 110.502C38.2839 91.2852 45.9175 72.8551 59.5056 59.2661C73.0938 45.6771 91.5234 38.0422 110.741 38.041C120.256 38.041 129.679 39.9153 138.47 43.5568C147.262 47.1984 155.25 52.5358 161.979 59.2645C168.707 65.9931 174.045 73.9812 177.686 82.7726C181.328 91.564 183.202 100.987 183.202 110.502C183.201 129.719 175.566 148.149 161.977 161.737C148.388 175.325 129.958 182.959 110.741 182.959Z" fill="#0D7F7F"/>
<path d="M110.741 209.576C125.37 209.59 139.821 206.358 153.05 200.113C166.28 193.867 177.959 184.764 187.245 173.46L169.799 152.479C163.109 161.907 154.256 169.595 143.983 174.898C133.71 180.202 122.315 182.966 110.754 182.959C99.115 182.965 87.6462 180.163 77.321 174.791C66.9958 169.419 58.119 161.636 51.4439 152.101L33.2689 172.205C42.5339 183.867 54.3136 193.285 67.7284 199.756C81.1432 206.227 95.8466 209.584 110.741 209.576Z" fill="#E55725"/>
<path d="M29.6483 61.1993C31.3034 58.6222 34.0335 57.6012 36.8176 58.5367L34.951 61.4422C34.392 61.355 33.8197 61.4369 33.3076 61.6773C32.7956 61.9178 32.3671 62.3057 32.0771 62.7915C31.0336 64.4151 31.5418 66.3131 33.4893 67.568C35.4367 68.8228 37.3752 68.4945 38.4367 66.8708C38.7615 66.4064 38.9399 65.8552 38.9487 65.2885C38.9575 64.7218 38.7964 64.1654 38.4862 63.691L40.3527 60.7855C42.3406 62.9399 42.552 65.8229 40.8923 68.4045C38.8369 71.6023 35.0769 72.3759 31.7801 70.2576C28.4834 68.1392 27.5884 64.3971 29.6483 61.1993Z" fill="#F2E7C8"/>
<path d="M41.891 46.1096L44.1398 43.9058L53.3104 53.2428L51.0616 55.4467L41.891 46.1096Z" fill="#F2E7C8"/>
<path d="M67.0822 39.9659L63.0073 42.5296L63.5875 44.8998L60.8034 46.6539L57.772 33.0801L60.8484 31.1416L71.7822 39.7411L68.9667 41.5131L67.0822 39.9659ZM61.1767 35.104L62.3956 40.0064L65.0942 38.3108L61.1767 35.104Z" fill="#F2E7C8"/>
<path d="M86.5929 34.0964C85.7519 34.363 84.8655 34.4565 83.9874 34.3714C83.1093 34.2862 82.2575 34.0242 81.4834 33.601C80.7093 33.1778 80.0289 32.6022 79.4832 31.909C78.9375 31.2157 78.5378 30.4192 78.3083 29.5673C78.0324 28.7304 77.9288 27.8462 78.0039 26.9682C78.079 26.0902 78.3311 25.2364 78.7451 24.4585C79.1591 23.6805 79.7264 22.9945 80.4127 22.4417C81.099 21.889 81.8901 21.4809 82.7384 21.2422C83.5764 20.9739 84.4602 20.8791 85.336 20.9635C86.2119 21.0479 87.0613 21.3097 87.8327 21.733C88.604 22.1564 89.2812 22.7323 89.8227 23.4258C90.3642 24.1193 90.7588 24.9158 90.9826 25.7668C91.2631 26.6012 91.3714 27.4839 91.3008 28.3614C91.2301 29.2389 90.9821 30.0929 90.5717 30.8718C90.1612 31.6506 89.597 32.3379 88.9131 32.8922C88.2291 33.4465 87.4398 33.8562 86.5929 34.0964ZM85.7563 31.3079C87.7262 30.7187 88.5808 28.8837 87.9196 26.6843C87.2585 24.485 85.5404 23.4235 83.5705 24.0127C81.6005 24.6019 80.7189 26.41 81.3891 28.6408C82.0592 30.8716 83.7548 31.9106 85.7608 31.3079H85.7563Z" fill="#F2E7C8"/>
<path d="M123.239 18.2109C126.28 18.6382 128.331 20.6936 128.664 23.6081L125.245 23.1313C125.088 22.5866 124.772 22.1015 124.337 21.7383C123.901 21.3752 123.367 21.1507 122.803 21.0939C120.892 20.8285 119.376 22.0879 119.057 24.3816C118.737 26.6754 119.844 28.2946 121.755 28.5644C122.314 28.6642 122.889 28.5946 123.408 28.3646C123.927 28.1346 124.364 27.7546 124.665 27.2736L128.083 27.7504C126.964 30.4489 124.431 31.8567 121.391 31.4339C117.622 30.9077 115.346 27.8358 115.89 23.9364C116.435 20.0369 119.475 17.6847 123.239 18.2109Z" fill="#F2E7C8"/>
<path d="M146.861 33.332L142.363 31.3755L140.205 36.3229L137.326 35.0636L142.575 23.0549L145.453 24.3143L143.398 29.0188L147.873 30.9753L149.929 26.2707L152.807 27.5301L147.563 39.5387L144.684 38.2794L146.861 33.332Z" fill="#F2E7C8"/>
<path d="M161.253 49.0287C160.566 48.4751 159.999 47.7883 159.584 47.0095C159.169 46.2307 158.916 45.376 158.841 44.4969C158.765 43.6179 158.868 42.7326 159.144 41.8944C159.419 41.0562 159.861 40.2824 160.444 39.6197C160.99 38.9279 161.67 38.3538 162.443 37.9319C163.217 37.5101 164.068 37.2493 164.945 37.1653C165.822 37.0812 166.707 37.1756 167.547 37.4429C168.386 37.7101 169.163 38.1446 169.83 38.7201C170.517 39.2706 171.084 39.9548 171.498 40.7313C171.911 41.5077 172.163 42.3602 172.237 43.2369C172.311 44.1135 172.206 44.9961 171.928 45.8309C171.651 46.6658 171.206 47.4354 170.622 48.0932C170.081 48.787 169.404 49.3639 168.633 49.7888C167.863 50.2137 167.014 50.4779 166.138 50.5653C165.262 50.6528 164.378 50.5617 163.538 50.2976C162.699 50.0334 161.921 49.6018 161.253 49.0287ZM163.115 46.7799C164.699 48.0932 166.714 47.7873 168.162 46.0198C169.61 44.2522 169.565 42.2373 167.982 40.9195C166.399 39.6017 164.406 39.8715 162.918 41.6661C161.429 43.4606 161.514 45.4486 163.129 46.7889L163.115 46.7799Z" fill="#F2E7C8"/>
<path d="M183.975 52.937L185.775 55.784L178.695 62.436L187.987 59.2877L189.831 62.2066L182.937 69.1555L192.004 65.6608L193.803 68.5213L180.926 72.6591L178.898 69.4388L185.095 63.1017L176.662 65.8947L174.634 62.6789L183.975 52.937Z" fill="#F2E7C8"/>
<path d="M110.741 182.959C150.76 182.959 183.202 150.517 183.202 110.498C183.202 70.4784 150.76 38.0364 110.741 38.0364C70.7214 38.0364 38.2793 70.4784 38.2793 110.498C38.2793 150.517 70.7214 182.959 110.741 182.959Z" fill="#F2E7C8"/>
<path d="M55.3253 176.33L51.8216 173.181L53.9355 170.842C54.3462 170.447 54.6949 169.992 54.97 169.493C55.0047 169.363 54.9978 169.226 54.9502 169.1C54.9026 168.974 54.8168 168.866 54.7047 168.792C54.6068 168.673 54.4725 168.591 54.3229 168.557C54.1733 168.522 54.0166 168.539 53.8771 168.603C53.3825 168.947 52.9402 169.36 52.5638 169.831L46.9193 176.082C46.5077 176.491 46.1576 176.958 45.8803 177.467C45.8429 177.597 45.8452 177.735 45.8869 177.863C45.9286 177.991 46.0077 178.104 46.1142 178.187C46.2099 178.295 46.3378 178.368 46.4787 178.397C46.6197 178.427 46.7662 178.41 46.8968 178.349C47.4203 177.983 47.8897 177.546 48.2911 177.049L49.8157 175.358L53.3194 178.506L52.8426 179.028C51.5893 180.422 50.5999 181.322 49.8742 181.727C49.042 182.151 48.0893 182.276 47.1757 182.082C46.0134 181.868 44.94 181.316 44.0902 180.494C43.1821 179.733 42.4825 178.753 42.0573 177.647C41.7257 176.761 41.7514 175.781 42.1292 174.913C42.7474 173.717 43.5402 172.619 44.4816 171.657L48.0302 167.721C48.6751 166.981 49.3661 166.283 50.0991 165.63C50.634 165.187 51.2736 164.89 51.9566 164.766C52.735 164.616 53.5392 164.677 54.2863 164.942C55.1669 165.248 55.973 165.737 56.6521 166.376C57.5714 167.145 58.266 168.147 58.6625 169.277C58.9821 170.15 58.9742 171.109 58.6401 171.976C58.0769 173.104 57.3409 174.138 56.4587 175.039L55.3253 176.33Z" fill="#F2E7C8"/>
<path d="M68.7553 175.898L58.9189 191.131L54.9565 188.572L64.7928 173.339L68.7553 175.898Z" fill="#F2E7C8"/>
<path d="M78.8794 192.665C78.1448 194.332 77.587 195.495 77.2062 196.155C76.8277 196.809 76.2851 197.353 75.632 197.734C74.9488 198.128 74.1718 198.33 73.3832 198.318C72.4609 198.297 71.553 198.086 70.7162 197.698C69.8928 197.35 69.1457 196.844 68.5169 196.209C67.9548 195.641 67.5623 194.928 67.3835 194.149C67.2047 193.407 67.2279 192.63 67.4509 191.9C67.8715 190.663 68.3564 189.448 68.9036 188.262L70.154 185.419C70.8871 183.751 71.4448 182.59 71.8271 181.929C72.2084 181.276 72.7523 180.732 73.4057 180.35C74.0888 179.956 74.8659 179.754 75.6546 179.766C76.5751 179.789 77.4814 180 78.3172 180.386C79.1403 180.735 79.8873 181.24 80.5165 181.875C81.0776 182.444 81.47 183.157 81.6499 183.935C81.828 184.677 81.8064 185.453 81.587 186.184C81.1625 187.422 80.676 188.638 80.1297 189.827L78.8794 192.665ZM76.9634 185.311C77.2134 184.827 77.3892 184.309 77.4851 183.773C77.4918 183.651 77.4578 183.531 77.3886 183.431C77.3194 183.331 77.2188 183.257 77.1028 183.22C77.0033 183.17 76.8927 183.147 76.7816 183.153C76.6705 183.158 76.5628 183.192 76.4687 183.251C76.2708 183.377 75.9874 183.863 75.6096 184.718L72.2004 192.467C71.9096 193.051 71.6863 193.667 71.5348 194.302C71.5245 194.43 71.5587 194.558 71.6316 194.663C71.7045 194.769 71.8117 194.846 71.935 194.882C72.0539 194.95 72.1929 194.973 72.3272 194.947C72.4616 194.922 72.5824 194.849 72.6682 194.743C73.0505 194.182 73.366 193.578 73.6081 192.944L76.9634 185.311Z" fill="#F2E7C8"/>
<path d="M95.8175 186.283L94.3648 204.557L89.6693 203.473L90.1594 200.239L88.5133 199.861L87.5059 202.973L82.7563 201.876L89.1745 184.749L95.8175 186.283ZM90.7621 197.077C90.993 195.023 91.3303 192.495 91.7741 189.494C90.5238 192.768 89.6587 195.175 89.179 196.713L90.7621 197.077Z" fill="#F2E7C8"/>
<path d="M121.755 195.013L117.046 195.3L116.853 192.152C116.857 191.574 116.77 190.999 116.597 190.447C116.528 190.333 116.425 190.243 116.302 190.19C116.18 190.137 116.044 190.123 115.913 190.151C115.761 190.137 115.61 190.173 115.481 190.254C115.352 190.336 115.254 190.457 115.202 190.6C115.099 191.195 115.083 191.801 115.153 192.399L115.67 200.806C115.672 201.385 115.76 201.961 115.931 202.515C115.996 202.647 116.102 202.754 116.234 202.819C116.366 202.884 116.515 202.903 116.66 202.874C116.805 202.883 116.948 202.844 117.068 202.762C117.189 202.681 117.279 202.562 117.325 202.425C117.43 201.796 117.445 201.155 117.37 200.522L117.231 198.246L121.935 197.959L121.98 198.665C122.093 200.536 122.043 201.876 121.827 202.672C121.548 203.559 120.973 204.324 120.199 204.84C119.231 205.519 118.085 205.899 116.902 205.933C115.724 206.049 114.535 205.863 113.448 205.393C112.583 205.01 111.9 204.305 111.546 203.428C111.124 202.149 110.894 200.816 110.862 199.47L110.538 194.181C110.461 193.202 110.446 192.22 110.493 191.239C110.555 190.547 110.79 189.882 111.177 189.305C111.616 188.645 112.223 188.114 112.936 187.767C113.77 187.353 114.681 187.118 115.612 187.079C116.804 186.959 118.007 187.164 119.093 187.672C119.933 188.058 120.608 188.731 120.995 189.57C121.406 190.764 121.626 192.015 121.647 193.277L121.755 195.013Z" fill="#F2E7C8"/>
<path d="M136.517 183.584L141.14 201.125L136.579 202.33L134.641 194.963L133.292 195.323L135.235 202.69L130.674 203.891L126.051 186.35L130.611 185.145L132.266 191.415L133.616 191.055L131.965 184.785L136.517 183.584Z" fill="#F2E7C8"/>
<path d="M155.492 186.732C156.284 188.376 156.805 189.557 157.057 190.277C157.308 190.989 157.369 191.755 157.233 192.498C157.088 193.277 156.734 194.002 156.207 194.594C155.592 195.28 154.842 195.831 154.003 196.213C153.205 196.615 152.335 196.855 151.444 196.92C150.647 196.978 149.85 196.813 149.141 196.443C148.467 196.096 147.896 195.578 147.486 194.941C146.828 193.815 146.227 192.656 145.687 191.468L144.338 188.671C143.546 187.028 143.025 185.848 142.773 185.131C142.522 184.419 142.461 183.653 142.597 182.909C142.741 182.129 143.095 181.402 143.623 180.809C144.238 180.123 144.988 179.572 145.827 179.19C146.626 178.79 147.495 178.551 148.386 178.484C149.183 178.428 149.979 178.593 150.689 178.961C151.362 179.308 151.932 179.826 152.344 180.463C153.002 181.59 153.603 182.751 154.143 183.939L155.492 186.732ZM148.66 183.409C148.452 182.907 148.173 182.438 147.833 182.014C147.743 181.931 147.628 181.88 147.507 181.868C147.385 181.855 147.262 181.883 147.158 181.947C147.056 181.991 146.967 182.06 146.899 182.149C146.831 182.237 146.787 182.341 146.771 182.451C146.74 182.676 146.924 183.211 147.329 184.052L151.003 191.698C151.254 192.301 151.576 192.871 151.961 193.398C152.052 193.488 152.171 193.545 152.299 193.559C152.426 193.573 152.555 193.543 152.663 193.474C152.791 193.426 152.899 193.335 152.967 193.216C153.035 193.097 153.06 192.957 153.036 192.822C152.854 192.168 152.599 191.536 152.276 190.938L148.66 183.409Z" fill="#F2E7C8"/>
<path d="M168.837 163.844L178.569 179.285L173.986 182.977C171.818 181.148 169.46 178.977 166.912 176.465C167.721 177.769 169.37 180.512 171.859 184.695L167.298 188.365L154.282 175.565L157.853 172.691L162.207 177.31L166.417 181.772C164.57 179.196 162.307 175.692 159.63 171.261L163.444 168.189C163.828 168.561 165.211 170.006 167.595 172.525L172.327 177.575C169.787 173.977 167.436 170.358 165.274 166.718L168.837 163.844Z" fill="#F2E7C8"/>
<path d="M86.3095 76.7926L80.4266 73.4508C80.4266 73.4508 78.0158 71.31 75.8794 73.9861C73.7431 76.6622 67.334 82.9453 67.334 82.9453C67.334 82.9453 66.1331 85.3561 67.334 87.362C68.5348 89.368 71.2155 95.6511 71.2155 95.6511L64.1047 109.027C64.1047 109.027 62.8993 111.568 64.1047 115.049C65.3101 118.531 80.4221 145.944 80.4221 145.944C80.4221 145.944 83.4985 149.29 87.5104 150.356C91.5223 151.422 110.651 154.237 110.651 154.237L134.592 150.09C134.592 150.09 138.469 149.69 140.609 146.344C142.75 142.998 157.206 114.109 157.206 114.109C157.683 113.154 157.931 112.101 157.931 111.033C157.931 109.965 157.683 108.912 157.206 107.957C155.6 104.48 150.518 94.8506 150.518 94.8506L153.459 87.0922C154.139 86.3753 154.529 85.4319 154.554 84.4442C154.579 83.4565 154.237 82.4947 153.594 81.7445C151.318 78.7985 145.701 73.5858 145.701 73.5858C145.701 73.5858 142.103 71.7103 140.218 73.3159C138.334 74.9216 135.801 77.4627 135.801 77.4627L128.313 72.6413C128.313 72.6413 122.016 69.304 115.742 71.5798L110.66 73.0506C110.66 73.0506 106.913 72.1106 104.102 71.4449C101.291 70.7793 96.6136 70.0956 93.2719 72.5153C91.0443 74.0876 88.7188 75.5162 86.3095 76.7926Z" fill="#E55725"/>
<path d="M74.9441 79.3741C73.5558 80.5607 72.2996 81.8937 71.1975 83.35C71.1975 83.35 77.4942 83.7502 79.0864 84.1505C80.6785 84.5508 82.4326 86.6917 81.0923 88.2973C79.752 89.903 68.7868 104.75 68.3865 107.691C67.9862 110.633 66.6503 115.18 72.2679 124.944C77.8854 134.708 81.5691 140.596 81.5691 140.596C81.5691 140.596 75.7446 128.691 76.1449 121.868C76.1449 121.868 76.2798 119.461 76.6801 118.391C76.6801 118.391 77.7686 122.938 81.5691 125.079C81.5691 125.079 78.4207 116.785 81.5691 110.633C84.7174 104.48 93.3528 94.6705 93.3528 94.6705C93.3528 94.6705 98.3496 90.7036 103.432 90.4382C108.514 90.1729 110.655 87.8971 110.655 87.8971C110.655 87.8971 113.597 90.4382 114.797 90.4382C115.998 90.4382 128.173 91.1039 129.914 90.1684C131.655 89.2329 133.926 84.4159 129.914 79.3336C125.902 74.2512 121.755 73.716 118.944 74.3862C116.133 75.0563 110.655 76.9273 110.655 76.9273C110.655 76.9273 105.973 74.0579 101.021 74.1568C96.0694 74.2557 89.6557 77.3051 87.245 78.7984C87.245 78.7984 86.7188 78.4835 80.2647 77.7594C79.3146 77.6513 78.3524 77.7387 77.4374 78.0164C76.5224 78.2941 75.6738 78.7561 74.9441 79.3741Z" fill="#F2E7C8"/>
<path d="M131.385 98.7275C131.385 98.7275 139.813 106.374 139.93 112.639C140.047 118.904 139.93 124.409 139.93 124.409C139.93 124.409 143.276 115.715 143.276 108.361C143.276 101.008 133.256 99.3977 131.385 98.7275Z" fill="#F2E7C8"/>
<path d="M145.696 97.1262C145.696 97.1262 150.378 108.492 145.696 123.473C141.014 138.455 138.608 141.914 138.608 141.914C138.608 141.914 151.449 122.52 152.784 117.838C154.12 113.156 155.06 105.685 145.696 97.1262Z" fill="#F2E7C8"/>
<path d="M135.532 78.6679L141.284 85.8911C141.284 85.8911 148.237 82.8147 150.108 83.6153C150.108 83.6153 147.837 74.1208 135.532 78.6679Z" fill="#F2E7C8"/>
<path d="M96.0739 97.1262C96.0739 97.1262 91.5267 100.068 92.0619 108.896C92.5971 117.725 93.8025 119.596 96.2087 120.397C98.615 121.198 106.508 119.048 108.114 111.568C109.72 104.089 106.238 104.345 106.238 104.345C106.238 104.345 102.64 101.003 103.697 97.6614C104.754 94.3197 110.655 94.8504 110.655 94.8504C110.655 94.8504 116.673 94.8504 117.608 97.1262C118.544 99.402 118.679 102.474 114.397 104.615C114.397 104.615 111.591 106.355 113.597 111.568C115.603 116.781 119.214 119.911 122.691 120.563L122.794 120.586C124.146 120.812 125.533 120.495 126.652 119.704C127.771 118.913 128.533 117.712 128.772 116.363C129.635 111.676 130.647 104.399 129.221 101.682C126.073 95.5565 120.181 93.1368 118.904 92.687C118.746 92.6256 118.579 92.5906 118.409 92.5836C116.633 92.4622 107.021 91.0409 101.534 93.8024C99.6118 94.7332 97.7834 95.8462 96.0739 97.1262Z" fill="#F2E7C8"/>
<path d="M109.85 97.1263C109.85 97.1263 106.382 99.9283 106.382 101.278C106.382 101.278 104.633 96.5911 109.85 97.1263Z" fill="#F2E7C8"/>
<path d="M108.915 116.12C108.915 116.12 106.639 120.267 103.697 122.142C103.697 122.142 103.297 130.836 110.655 133.242C110.655 133.242 117.339 133.377 117.608 121.998C117.608 121.998 113.196 117.851 112.661 116.111L110.979 124.656L108.915 116.12Z" fill="#F2E7C8"/>
<path d="M101.567 92.3552C102.846 92.075 103.568 90.4139 103.18 88.6451C102.793 86.8762 101.442 85.6695 100.163 85.9497C98.8846 86.2299 98.1622 87.891 98.5499 89.6598C98.9375 91.4287 100.288 92.6354 101.567 92.3552Z" fill="#E55725"/>
<path d="M123.386 89.8676C123.979 88.146 123.45 86.403 122.206 85.9744C120.961 85.5458 119.471 86.5939 118.878 88.3154C118.286 90.037 118.814 91.7801 120.059 92.2087C121.304 92.6373 122.793 91.5891 123.386 89.8676Z" fill="#E55725"/>
</g>
<defs>
<clipPath id="clip0_1503_454">
<rect width="221" height="221" fill="white"/>
</clipPath>
</defs>
</svg>
