<svg width="19" height="19" viewBox="0 0 19 19" fill="none" xmlns="http://www.w3.org/2000/svg">
<g clip-path="url(#clip0_594_1653)">
<path d="M18.9537 13.709C18.5952 11.1777 16.0525 9.38502 13.4143 9.80418C10.794 10.2204 9.03077 12.5374 9.41021 15.0665C9.70421 17.0262 11.3362 18.6173 13.3732 18.9353C13.4493 18.9472 13.5409 18.9278 13.6007 19.0003H13.7945C13.8206 18.9769 13.8462 18.9769 13.8722 19.0003H14.647C14.7127 18.9312 14.802 18.9672 14.8793 18.9557C17.5315 18.5581 19.3156 16.2626 18.9541 13.7094L18.9537 13.709ZM16.2172 13.6536C15.6195 14.3662 15.0237 15.0803 14.4237 15.791C14.186 16.0726 13.8796 16.1112 13.5712 15.9007C13.1304 15.5999 12.6923 15.2952 12.2566 14.9877C11.9708 14.7857 11.9094 14.4432 12.104 14.1895C12.2985 13.9359 12.6512 13.8938 12.9456 14.0936C13.2031 14.2684 13.4613 14.4432 13.7114 14.6273C13.8093 14.6994 13.8586 14.6965 13.9379 14.6001C14.3965 14.0422 14.8614 13.4888 15.3286 12.9373C15.5011 12.7334 15.7477 12.671 15.9865 12.7546C16.2242 12.838 16.3679 13.038 16.3644 13.3107C16.3656 13.4237 16.3085 13.5446 16.2168 13.6536H16.2172Z" fill="#D33930"/>
<path d="M14.8386 2.29767C14.8371 0.983299 13.8114 0.00105188 12.4408 0.000679954C9.09653 -6.38909e-05 5.75224 -6.38909e-05 2.40835 0.000679954C1.02497 0.00105188 0.0008267 0.980695 0.0008267 2.30585C4.9954e-05 6.5599 4.9954e-05 10.8136 0.0008267 15.0676C0.0008267 16.3976 1.01914 17.3735 2.40369 17.3735C4.56654 17.3739 6.72939 17.3735 8.89185 17.3735H9.11517C9.07089 17.2992 9.04293 17.2523 9.01497 17.2051C8.28288 15.9666 8.05374 14.6421 8.34813 13.253C8.95089 10.4071 11.6178 8.48609 14.6522 8.69213C14.8013 8.70218 14.8433 8.68209 14.8429 8.52998C14.8371 6.45242 14.8406 4.37486 14.8386 2.2973V2.29767ZM6.39306 13.7198C5.27105 13.7235 4.14904 13.7228 3.02703 13.7198C2.69225 13.719 2.44447 13.5268 2.40214 13.25C2.36058 12.9789 2.51865 12.7282 2.78585 12.6364C2.87362 12.6062 2.96295 12.6081 3.05305 12.6077C3.60765 12.6074 4.16225 12.6077 4.71684 12.6077C5.27144 12.6077 5.82604 12.6066 6.38063 12.6081C6.76435 12.6092 7.01756 12.8275 7.02028 13.1548C7.023 13.4821 6.76901 13.7187 6.39345 13.7198H6.39306ZM6.40432 7.00212C5.2761 7.00733 4.14749 7.00695 3.01887 7.00249C2.64448 7.001 2.39165 6.76 2.3967 6.43271C2.40175 6.11322 2.65342 5.89267 3.02198 5.89156C3.58939 5.8897 4.15681 5.89119 4.72422 5.89119C5.27882 5.89119 5.83341 5.89007 6.38801 5.89156C6.76007 5.89267 7.01135 6.10765 7.01951 6.42675C7.02766 6.75553 6.77755 7.00063 6.40432 7.00249V7.00212ZM7.01951 8.6542C7.02727 8.9826 6.77638 9.22733 6.40316 9.22882C5.27493 9.23402 4.14632 9.23365 3.01771 9.22882C2.64371 9.22733 2.39126 8.98595 2.3967 8.65829C2.40214 8.33844 2.65342 8.119 3.02276 8.11789C3.58357 8.11603 4.14477 8.11751 4.70558 8.11751C5.26639 8.11751 5.82759 8.11603 6.3884 8.11789C6.76007 8.119 7.01135 8.33509 7.01912 8.65382L7.01951 8.6542ZM3.03907 10.3446C3.59367 10.3431 4.14826 10.3446 4.70286 10.3446C5.25746 10.3446 5.82487 10.3431 6.38607 10.345C6.76668 10.3461 7.01989 10.5685 7.02028 10.8965C7.02028 11.2231 6.7659 11.4555 6.38801 11.4566C5.2726 11.46 4.15681 11.4596 3.0414 11.4566C2.65186 11.4555 2.39359 11.2223 2.39748 10.8887C2.40136 10.5614 2.65419 10.3457 3.03946 10.3446H3.03907ZM6.38995 4.77653C5.26794 4.78063 4.14593 4.781 3.02392 4.77653C2.6472 4.77505 2.39437 4.53776 2.39709 4.21121C2.39981 3.88429 2.6538 3.66635 3.03713 3.66523C3.59173 3.66412 4.14632 3.66523 4.70092 3.66523C5.25552 3.66523 5.82293 3.66412 6.38374 3.66523C6.76551 3.66635 7.01912 3.88615 7.02028 4.21419C7.02184 4.53999 6.76745 4.77505 6.38995 4.77653ZM10.0927 9.22324C9.51908 9.23997 8.94428 9.23997 8.37066 9.22398C8.03277 9.21468 7.8079 8.95769 7.81839 8.64862C7.82888 8.34327 8.07472 8.12346 8.41726 8.119C8.68835 8.11565 8.95904 8.11826 9.23013 8.11826C9.50121 8.11826 9.77191 8.11565 10.043 8.119C10.3848 8.12309 10.6302 8.33992 10.6485 8.64713C10.6659 8.94169 10.4259 9.21394 10.0927 9.22361V9.22324ZM11.8097 7.00323C10.6877 7.00695 9.56568 7.00733 8.44367 7.00323C8.06773 7.00175 7.81451 6.76334 7.818 6.4368C7.8215 6.11136 8.07705 5.89305 8.45959 5.89193C9.02041 5.89081 9.5816 5.89193 10.1424 5.89193C10.7032 5.89193 11.2516 5.89081 11.8062 5.8923C12.1872 5.89342 12.4408 6.11508 12.4416 6.44275C12.4424 6.76744 12.1864 7.00249 11.8097 7.00361V7.00323ZM11.8147 4.77653C10.6927 4.781 9.57073 4.78063 8.44872 4.77653C8.07083 4.77505 7.81684 4.54036 7.818 4.21456C7.81917 3.88764 8.07355 3.66598 8.45455 3.66523C9.01536 3.66374 9.57656 3.66486 10.1374 3.66486C10.6982 3.66486 11.2466 3.66374 11.8012 3.66486C12.1845 3.6656 12.4385 3.88355 12.4416 4.21047C12.4447 4.53553 12.1899 4.77468 11.8147 4.77616V4.77653Z" fill="#D33930"/>
</g>
<defs>
<clipPath id="clip0_594_1653">
<rect width="19" height="19" fill="white"/>
</clipPath>
</defs>
</svg>
