<svg width="17" height="17" viewBox="0 0 17 17" fill="none" xmlns="http://www.w3.org/2000/svg">
<g clip-path="url(#clip0_643_260)">
<path d="M8.5 0C10.1811 0 11.8245 0.498516 13.2223 1.43251C14.6202 2.3665 15.7096 3.69402 16.353 5.24719C16.9963 6.80036 17.1646 8.50943 16.8367 10.1583C16.5087 11.8071 15.6992 13.3217 14.5104 14.5104C13.3217 15.6992 11.8071 16.5087 10.1583 16.8367C8.50943 17.1646 6.80036 16.9963 5.24719 16.353C3.69402 15.7096 2.3665 14.6202 1.43251 13.2223C0.498514 11.8245 -3.8147e-06 10.1811 -3.8147e-06 8.5C0.00243378 6.24641 0.898748 4.08582 2.49228 2.49228C4.08581 0.898753 6.2464 0.00243743 8.5 0V0ZM8.5 15.5833C9.90095 15.5833 11.2704 15.1679 12.4353 14.3896C13.6001 13.6112 14.508 12.505 15.0441 11.2107C15.5803 9.91636 15.7205 8.49214 15.4472 7.11811C15.1739 5.74408 14.4993 4.48195 13.5087 3.49133C12.518 2.50071 11.2559 1.82608 9.88189 1.55277C8.50785 1.27946 7.08363 1.41973 5.78932 1.95585C4.49501 2.49197 3.38875 3.39986 2.61042 4.56471C1.83209 5.72956 1.41666 7.09905 1.41666 8.5C1.41873 10.378 2.16567 12.1785 3.4936 13.5064C4.82154 14.8343 6.62201 15.5813 8.5 15.5833Z" fill="#D53B32"/>
<path d="M8.50002 4.25C8.68788 4.25 8.86805 4.32463 9.00089 4.45747C9.13373 4.5903 9.20835 4.77047 9.20835 4.95833V8.02187L11.5961 9.51787C11.7558 9.61763 11.8693 9.77673 11.9117 9.96018C11.9541 10.1436 11.9219 10.3364 11.8221 10.4961C11.7223 10.6558 11.5632 10.7693 11.3798 10.8117C11.1963 10.854 11.0036 10.8218 10.8439 10.722L8.1239 9.02204C8.02113 8.95765 7.93661 8.86795 7.87845 8.76154C7.82028 8.65512 7.79041 8.53556 7.79169 8.41429V4.95833C7.79169 4.77047 7.86632 4.5903 7.99916 4.45747C8.13199 4.32463 8.31216 4.25 8.50002 4.25Z" fill="#D53B32"/>
</g>
<defs>
<clipPath id="clip0_643_260">
<rect width="17" height="17" fill="white" transform="matrix(-1 0 0 1 17 0)"/>
</clipPath>
</defs>
</svg>
